<svg xmlns="http://www.w3.org/2000/svg" xml:space="preserve" width="125" height="125" viewBox="0 0 33.073 33.073"><g transform="translate(28.194 3.247) scale(.26458)"><rect width="88.97" height="88.97" x="-88.55" y="5.74" fill="#87694d" stroke="#333" stroke-width="7.025" rx="6.9" ry="6.9"/><circle cx="-44.06" cy="50.23" r="45.5" fill="#654f3a" stroke="#333" stroke-width="5"/><circle cx="-44.06" cy="50.23" r="37.5" fill="#87694d"/><circle cx="-44.06" cy="50.23" r="31" fill="#654f3a" stroke="#333" stroke-width="5"/><path stroke="#333" stroke-width="5" d="M-43.98 2.23v18.94m-48.08 29.06h18.94m58.11 0H3.94m-48 29.05v18.95"/></g><g transform="rotate(-135 -34.081 -.219) scale(.26335)"><circle cx="-310.312" cy="90.089" r="21.612" fill="#57ccee" stroke="#333" stroke-width="5"/><path fill="#1671b5" d="M-301.79 76.836a16.875 16.875 0 0 1 1.54 7.039 16.875 16.875 0 0 1-16.875 16.875 16.875 16.875 0 0 1-6.36-1.244 16 16 0 0 0 13.114 6.834 16 16 0 0 0 16-16 16 16 0 0 0-7.418-13.504z"/></g></svg>