<svg xmlns="http://www.w3.org/2000/svg" xml:space="preserve" width="125" height="125" viewBox="0 0 33.073 33.073"><g transform="translate(3.837 3.837) scale(.26458)"><rect width="88.97" height="88.97" x="3.51" y="3.51" fill="#3fc57d" stroke="#333" stroke-width="7.025" rx="6.9" ry="6.9"/><circle cx="48" cy="48" r="45.5" fill="#2f945e" stroke="#333" stroke-width="5"/><circle cx="48" cy="48" r="37.5" fill="#3fc57d"/><circle cx="48" cy="48" r="31" fill="#2f945e" stroke="#333" stroke-width="5"/><path stroke="#333" stroke-width="5" d="M48.08 0v18.94M0 48h18.94m58.12 0H96M48 77.06V96"/></g><g transform="rotate(-135 -34.081 -.219) scale(.26335)"><circle cx="-310.312" cy="90.089" r="21.612" fill="#57ccee" stroke="#333" stroke-width="5"/><path fill="#1671b5" d="M-301.79 76.836a16.875 16.875 0 0 1 1.54 7.039 16.875 16.875 0 0 1-16.875 16.875 16.875 16.875 0 0 1-6.36-1.244 16 16 0 0 0 13.114 6.834 16 16 0 0 0 16-16 16 16 0 0 0-7.418-13.504z"/></g></svg>