<svg xmlns="http://www.w3.org/2000/svg" xml:space="preserve" width="125" height="125" viewBox="0 0 33.073 33.073"><g transform="translate(-245.847 346.449) scale(1.00013)"><rect width="23.54" height="23.54" x="250.58" y="-341.64" fill="#bbb" stroke="#333" stroke-width="1.859" rx="1.83" ry="1.83"/><circle cx="262.35" cy="-329.87" r="12.04" fill="#8c8c8c" stroke="#333" stroke-width="1.323"/><circle cx="262.35" cy="-329.87" r="9.92" fill="#bbb"/><circle cx="262.35" cy="-329.87" r="8.2" fill="#8c8c8c" stroke="#333" stroke-width="1.323"/><path fill="#bbb" stroke="#333" stroke-width="1.323" d="M262.37-342.57v5.01m-12.72 7.7h5.01m15.38 0h5.01m-12.7 7.68v5.01"/></g><g transform="rotate(-135 -34.081 -.219) scale(.26335)"><circle cx="-310.312" cy="90.089" r="21.612" fill="#57ccee" stroke="#333" stroke-width="5"/><path fill="#1671b5" d="M-301.79 76.836a16.875 16.875 0 0 1 1.54 7.039 16.875 16.875 0 0 1-16.875 16.875 16.875 16.875 0 0 1-6.36-1.244 16 16 0 0 0 13.114 6.834 16 16 0 0 0 16-16 16 16 0 0 0-7.418-13.504z"/></g></svg>