<svg xmlns="http://www.w3.org/2000/svg" xml:space="preserve" width="125" height="125" viewBox="0 0 33.073 33.073"><g stroke="#333" transform="translate(7.786 -3.394)"><rect width="23.54" height="23.54" x="-3.02" y="8.16" fill="#3fc57d" stroke-width="1.86" rx="1.83" ry="1.83"/><g stroke-linejoin="round" stroke-width="1.01"><g transform="rotate(-45 7.88 21) scale(1.043)"><rect width="7.23" height="21.99" x="5.26" y="8.99" fill="#646055" ry="2.56"/><circle cx="8.87" cy="12.14" r="1.34" fill="#999"/><circle cx="8.87" cy="27.83" r="1.34" fill="#999"/></g><g transform="scale(-1.044 1.044) rotate(-45 -.83 40.37)"><rect width="7.23" height="21.99" x="5.26" y="8.99" fill="#646055" ry="2.56"/><circle cx="8.87" cy="12.14" r="1.34" fill="#999"/><circle cx="8.87" cy="27.83" r="1.34" fill="#999"/></g></g><g stroke-width=".91" transform="translate(-1.55 -3.33) scale(1.166)"><circle cx="8.83" cy="19.94" r="6.61" fill="#767164" stroke-linecap="round" stroke-linejoin="round" paint-order="markers fill stroke"/><circle cx="8.83" cy="19.94" r="4.43" fill="#646055" stroke-linecap="round" stroke-linejoin="round" paint-order="markers fill stroke"/><path fill="none" d="M8.83 24.07v2.52M2.87 16.5l2.48 1.43"/><path fill="#ccc" d="m14.86 16.48-2.49 1.44"/></g></g><g stroke="#333" stroke-width=".794" transform="translate(7.408 7.318) scale(.9998)"><g fill="#767164" stroke-linejoin="round"><path d="M7.37 1.88h3.52L9.83 9.91h-1.4z"/><path d="m14.52 3.97 1.75 3.05-7.48 3.1-.7-1.22Z"/><path d="m16.27 11.2-1.76 3.05-6.42-4.93.7-1.21Z"/><path d="M10.89 16.34H7.37l1.06-8.02h1.4z"/><path d="M3.75 14.25 1.99 11.2l7.48-3.1.7 1.22z"/><path d="m1.99 7.02 1.76-3.05 6.42 4.93-.7 1.22Z"/></g><path fill="#8a867b" stroke-linecap="round" stroke-linejoin="round" d="M13.7 2.97a7.67 7.67 0 1 0-9.14 12.32 7.67 7.67 0 0 0 10.73-1.6 7.67 7.67 0 0 0-1.6-10.72Zm-1.17 1.58a5.7 5.7 0 0 1 1.18 7.98 5.7 5.7 0 0 1-7.98 1.18 5.7 5.7 0 0 1-1.18-7.98 5.7 5.7 0 0 1 7.98-1.18z" paint-order="markers fill stroke"/><circle cx="9.13" cy="9.13" r="2.9" fill="#3fc57d" stroke-linecap="round" stroke-linejoin="round" paint-order="markers fill stroke"/><circle cx="9.13" cy="9.13" r="1.22" fill="#888" stroke-linecap="round" stroke-linejoin="round" paint-order="markers fill stroke"/><path fill="#49acc9" d="M6.4 1.4A8.2 8.2 0 0 0 .93 9.13a8.2 8.2 0 0 0 .14 1.5l2.76-1.6A5.3 5.3 0 0 1 6.4 4.59Zm5.45 0v3.17a5.3 5.3 0 0 1 2.58 4.47l2.76 1.59a8.2 8.2 0 0 0 .14-1.5 8.2 8.2 0 0 0-5.48-7.73Zm-5.3 12.36-2.76 1.59a8.2 8.2 0 0 0 5.34 1.98 8.2 8.2 0 0 0 5.33-1.98l-2.75-1.6a5.3 5.3 0 0 1-2.58.68 5.3 5.3 0 0 1-2.58-.67Z"/><path fill="#6fd49e" stroke-linejoin="round" d="M8.75 1.11h.76l.52 2.46-.84.53-.97-.53Zm7.51 11.69-.38.66-2.4-.78-.03-1 .94-.57zm-13.88.66L2 12.8l1.87-1.69.88.47.02 1.1z"/></g></svg>