<svg xmlns="http://www.w3.org/2000/svg" xml:space="preserve" width="125" height="125" viewBox="0 0 33.073 33.073"><g stroke="#333" transform="translate(7.786 -3.394)"><rect width="23.54" height="23.54" x="-3.02" y="8.16" fill="#87694d" stroke-width="1.86" rx="1.83" ry="1.83"/><g stroke-linejoin="round" stroke-width="1.06"><rect width="7.54" height="22.94" x="-11.67" y="8.8" fill="#646055" ry="2.67" transform="rotate(-45)"/><circle cx="-7.9" cy="12.09" r="1.4" fill="#98958b" transform="rotate(-45)"/><circle cx="-7.9" cy="28.45" r="1.4" fill="#98958b" transform="rotate(-45)"/><rect width="7.55" height="22.95" x="-24.05" y="-3.57" fill="#646055" ry="2.67" transform="scale(-1 1) rotate(-45)"/><circle cx="-20.28" cy="-.28" r="1.4" fill="#98958b" transform="scale(-1 1) rotate(-45)"/><circle cx="-20.28" cy="16.1" r="1.4" fill="#98958b" transform="scale(-1 1) rotate(-45)"/></g><g stroke-width=".91" transform="translate(-1.55 -3.33) scale(1.166)"><circle cx="8.83" cy="19.94" r="6.61" fill="#767164" stroke-linecap="round" stroke-linejoin="round" paint-order="markers fill stroke"/><circle cx="8.83" cy="19.94" r="4.43" fill="#646055" stroke-linecap="round" stroke-linejoin="round" paint-order="markers fill stroke"/><path fill="none" d="M8.83 24.07v2.52M2.87 16.5l2.48 1.43"/><path fill="#ccc" d="m14.86 16.48-2.49 1.44"/></g></g><g stroke="#333" stroke-width=".794" transform="translate(7.408 7.318) scale(.9998)"><g fill="#767164" stroke-linejoin="round"><path d="M7.37 1.88h3.52L9.83 9.91h-1.4z"/><path d="m14.52 3.97 1.75 3.05-7.48 3.1-.7-1.22Z"/><path d="m16.27 11.2-1.76 3.05-6.42-4.93.7-1.21Z"/><path d="M10.89 16.34H7.37l1.06-8.03h1.4z"/><path d="M3.75 14.25 1.99 11.2l7.48-3.1.7 1.22z"/><path d="m1.99 7.02 1.76-3.05 6.42 4.93-.7 1.22Z"/></g><path fill="#997f68" stroke-linecap="round" stroke-linejoin="round" d="M13.7 2.97A7.67 7.67 36.58 0 0 2.97 4.56a7.67 7.67 36.58 0 0 1.59 10.73 7.67 7.67 36.58 0 0 10.73-1.6A7.67 7.67 36.58 0 0 13.7 2.98Zm-1.17 1.58a5.7 5.7 36.58 0 1 1.18 7.98 5.7 5.7 36.58 0 1-7.98 1.18 5.7 5.7 36.58 0 1-1.18-7.98 5.7 5.7 36.58 0 1 7.98-1.18z" paint-order="markers fill stroke"/><circle cx="9.13" cy="9.13" r="2.9" fill="#87694d" stroke-linecap="round" stroke-linejoin="round" paint-order="markers fill stroke"/><circle cx="9.13" cy="9.13" r="1.22" fill="#98958b" stroke-linecap="round" stroke-linejoin="round" paint-order="markers fill stroke"/><path fill="#49acc9" d="M6.4 1.4A8.2 8.2 0 0 0 .93 9.13a8.2 8.2 0 0 0 .14 1.5l2.76-1.6A5.3 5.3 0 0 1 6.4 4.59Zm5.45 0v3.17a5.3 5.3 0 0 1 2.58 4.47l2.76 1.59a8.2 8.2 0 0 0 .14-1.5 8.2 8.2 0 0 0-5.48-7.73Zm-5.3 12.36-2.76 1.59a8.2 8.2 0 0 0 5.34 1.98 8.2 8.2 0 0 0 5.33-1.98l-2.75-1.6a5.3 5.3 0 0 1-2.58.69 5.3 5.3 0 0 1-2.58-.68Z"/><path fill="#98958b" stroke-linejoin="round" d="M8.75 1.11h.76l.53 2.46-.85.53-.97-.53Zm7.5 11.7-.37.65-2.4-.77-.03-1 .94-.57zm-13.87.65L2 12.8l1.87-1.68.88.46.02 1.1z"/></g></svg>