<svg xmlns="http://www.w3.org/2000/svg" xml:space="preserve" width="125" height="125"><g stroke="#333" transform="translate(14.505 14.505)"><rect width="88.97" height="88.97" x="3.51" y="3.51" fill="#d4af37" stroke-width="7.025" rx="6.9" ry="6.9"/><rect width="75" height="15" x="30.38" y="-7.5" fill="#d49737" stroke-width="5" rx="1" ry="1" transform="rotate(45)"/><rect width="75" height="15" x="-37.5" y="-75.38" fill="#d49737" stroke-width="5" rx="1" ry="1" transform="rotate(135)"/><rect width="43.23" height="43.23" x="-21.62" y="-89.5" fill="#88cfe0" stroke-width="5" rx="1" ry="1" transform="rotate(135)"/><circle cx="48" cy="48" r="17" fill="#74b0bf" stroke-width="4"/></g><path fill="#b4952f" stroke="#333" stroke-width="4.5" d="M52.715 113.435v-83.47h19.57v83.47z"/><path fill="#88cfe0" stroke="#333" stroke-linejoin="round" stroke-width="4.5" d="M49.215 10.635h26.57v13.8h-26.57Z"/><path fill="#d4af37" stroke="#333" stroke-width="5" d="M95.755 41.535s-7.95-23.81-19.65-23.81h-26.88c-11.7 0-19.97 23.81-19.97 23.81l4.94 9.3 16.55-17.39h23.52l16.55 17.39z"/><path fill="#ccc" stroke="#333" stroke-linejoin="round" stroke-width="4.5" d="M14.845 30.735c.17.41.35.82.55 1.22 3.8 7.99 10.9 12.28 15.86 9.58l3.32 11.71c-6.19 4.46-17.24 1.94-21.69-4.24a13.78 13.78 0 0 1 1.95-18.27z"/><path fill="#ae8971" stroke="#333" stroke-linejoin="round" stroke-width="3" d="m31.246 39.56 20.699 56.56-7.682 2.812L23.564 42.37Z"/><path stroke="#333" stroke-width="3" d="m36.975 54.255-8.26 3.03m13.57 11.45-8.25 3.02m13.55 11.45-8.26 3.03"/><path fill="#c95353" stroke="#333" stroke-width="3.5" d="m62.535 70.505 9.88 11.57 1.66 16.49-11.57-1.64-11.56 1.64 1.72-16.5z"/><path fill="#573d2f" stroke="#333" stroke-width="2.5" d="M59.625 18.785h5.76v94h-5.76z"/><path fill="#aaa" stroke="#333" stroke-linejoin="round" stroke-width="5" d="M-189.9 293.21c-1.1-1.9 10.03-21.18 12.23-21.18 2.2 0 13.33 19.27 12.23 21.18-1.1 1.9-23.35 1.9-24.46 0z" transform="matrix(.627 0 0 .808 173.905 -216.735)"/><path fill="#ccc" d="M64.01 18.488c.534-1.163-.856-12.683-1.527-12.655-.67.029-6.07 11.832-5.933 12.973.138 1.136 6.925.846 7.46-.318z"/><path fill="#666" stroke="#333" stroke-linejoin="round" stroke-width="5" d="M39.745 101.925c12.33-3.3 33.19-3.3 45.52 0 0 0-4.96 19.53-13.47 19.53h-18.58c-8.5 0-13.47-19.52-13.47-19.52z"/><path fill="#888" d="M42.895 103.605c16.6-3.92 35.34-.5 35.34-.5-8.75 16.8-25.55 15.83-25.55 15.83-5.27 0-9.79-15.33-9.79-15.33z"/><path fill="#ccc" stroke="#333" stroke-linejoin="round" stroke-width="4.5" d="M110.165 30.735a25.74 25.74 0 0 1-.55 1.22c-3.8 7.99-10.91 12.28-15.86 9.58l-3.32 11.71c6.18 4.45 17.24 1.94 21.68-4.24a13.78 13.78 0 0 0-1.95-18.27z"/><path fill="#ae8971" stroke="#333" stroke-width="3" d="M93.76 39.533 73.04 96.087l7.682 2.814 20.718-56.554Z"/><path stroke="#333" stroke-width="3" d="m88.035 54.255 8.25 3.03m-13.55 11.45 8.25 3.02m-13.56 11.45 8.26 3.03"/></svg>