<svg xmlns="http://www.w3.org/2000/svg" xml:space="preserve" width="96" height="96" viewBox="0 0 25.4 25.4"><g stroke-linejoin="round"><g stroke="#333" transform="translate(-7.15 32.03)"><path fill="#c74659" stroke-width="1.86" d="M16.02-24.75h7.67l.53 1.06 1.06.53v7.67l-1.06.53-.53 1.06h-7.67l-.53-1.06-1.06-.53v-7.67l1.06-.53z"/><rect width="5.53" height="5.53" x="24.94" y="-2.39" fill="#666" stroke-linecap="round" stroke-width=".68" rx=".86" ry=".86" transform="rotate(-45)"/><rect width="4.3" height="4.3" x="25.55" y="-1.78" fill="#575757" stroke="none" rx=".86" ry=".86" transform="rotate(-45)"/></g><path fill="#ccc" stroke="#333" stroke-linecap="round" stroke-width=".55" d="M12.7 15.15c-.2.01-.86-1.24-1-1.39-.16-.15-1.45-.84-1.46-1.06 0-.2 1.25-.86 1.4-1 .15-.16.84-1.45 1.06-1.46.2 0 .86 1.25 1 1.4.16.15 1.45.84 1.46 1.06 0 .2-1.25.86-1.4 1-.15.16-.84 1.45-1.06 1.46z"/><path fill="#969696" d="M12.7 12.7h2.1l-1.22.82-.88 1.29z"/><path fill="#f0f0f0" d="M12.71 12.71h-2.13l1.28-.86.84-1.25z"/></g></svg>