<svg xmlns="http://www.w3.org/2000/svg" xml:space="preserve" width="96" height="96" viewBox="0 0 25.4 25.4"><g stroke="#333" stroke-linejoin="round" transform="translate(-7.16 32.03)"><path fill="#3fc57d" stroke-width="1.86" d="M16.02-24.75h7.67l.53 1.06 1.06.53v7.67l-1.06.53-.53 1.06h-7.67l-.53-1.06-1.06-.53v-7.67l1.06-.53z"/><rect width="5.53" height="5.53" x="24.94" y="-2.39" fill="#666" stroke-linecap="round" stroke-width=".68" rx=".86" ry=".86" transform="rotate(-45)"/><rect width="4.3" height="4.3" x="25.55" y="-1.78" fill="#575757" stroke="none" rx=".86" ry=".86" transform="rotate(-45)"/><path fill="#ccc" stroke-linecap="round" stroke-width=".55" d="M19.86-16.87c-.2 0-.86-1.25-1-1.4-.17-.16-1.46-.85-1.46-1.07 0-.2 1.25-.84 1.4-.99s.84-1.45 1.06-1.45c.2 0 .85 1.24 1 1.39.15.16 1.45.85 1.46 1.05 0 .21-1.26.87-1.4 1.01-.16.16-.86 1.46-1.06 1.46"/><path fill="#969696" stroke="none" d="M19.86-19.32h2.1l-1.22.82-.88 1.29z"/><path fill="#f0f0f0" stroke="none" d="m19.86-19.32-2.16.03 1.31-.9.85-1.24z"/></g></svg>