<svg xmlns="http://www.w3.org/2000/svg" width="24" height="24" viewBox="0 0 6.35 6.35"><g fill="#fffe77"><path d="m2.5 3.14.67-.78.68.78h.72l-1.4-1.6-1.39 1.6z"/><path d="M.13 3.18a3.04 3.04 0 0 0 .03.43 3.04 3.04 0 0 0 .1.42 3.04 3.04 0 0 0 .15.4 3.04 3.04 0 0 0 .2.39 3.04 3.04 0 0 0 .27.35 3.04 3.04 0 0 0 .3.3 3.04 3.04 0 0 0 .35.26 3.04 3.04 0 0 0 .38.21 3.04 3.04 0 0 0 .4.15 3.04 3.04 0 0 0 .43.1 3.04 3.04 0 0 0 .43.03 3.04 3.04 0 0 0 .44-.03 3.04 3.04 0 0 0 .42-.1 3.04 3.04 0 0 0 .4-.15 3.04 3.04 0 0 0 .39-.2 3.04 3.04 0 0 0 .35-.27 3.04 3.04 0 0 0 .3-.3 3.04 3.04 0 0 0 .26-.35 3.04 3.04 0 0 0 .21-.38 3.04 3.04 0 0 0 .15-.4 3.04 3.04 0 0 0 .1-.43 3.04 3.04 0 0 0 .03-.43 3.04 3.04 0 0 0-.03-.44 3.04 3.04 0 0 0-.1-.42 3.04 3.04 0 0 0-.15-.4 3.04 3.04 0 0 0-.2-.39 3.04 3.04 0 0 0-.27-.35 3.04 3.04 0 0 0-.3-.3 3.04 3.04 0 0 0-.35-.26A3.04 3.04 0 0 0 4.44.4a3.04 3.04 0 0 0-.4-.15 3.04 3.04 0 0 0-.43-.1 3.04 3.04 0 0 0-.44-.03 3.04 3.04 0 0 0-.14 0 3.04 3.04 0 0 0-.15.02 3.04 3.04 0 0 0-.15.02 3.04 3.04 0 0 0-.15.02 3.04 3.04 0 0 0-.14.03 3.04 3.04 0 0 0-.15.04 3.04 3.04 0 0 0-.14.05 3.04 3.04 0 0 0-.14.05 3.04 3.04 0 0 0-.14.06 3.04 3.04 0 0 0-.13.07 3.04 3.04 0 0 0-.13.08 3.04 3.04 0 0 0-.13.08 3.04 3.04 0 0 0-.12.08 3.04 3.04 0 0 0-.12.1 3.04 3.04 0 0 0-.1.09 3.04 3.04 0 0 0-.12.1 3.04 3.04 0 0 0-.1.11 3.04 3.04 0 0 0-.1.11 3.04 3.04 0 0 0-.09.12 3.04 3.04 0 0 0-.08.12 3.04 3.04 0 0 0-.08.13 3.04 3.04 0 0 0-.08.13 3.04 3.04 0 0 0-.07.13 3.04 3.04 0 0 0-.06.14 3.04 3.04 0 0 0-.05.14 3.04 3.04 0 0 0-.05.14 3.04 3.04 0 0 0-.04.15 3.04 3.04 0 0 0-.03.14 3.04 3.04 0 0 0-.02.15 3.04 3.04 0 0 0-.02.15 3.04 3.04 0 0 0-.01.15 3.04 3.04 0 0 0 0 .15Zm.53 0a2.52 2.52 0 0 1 0-.14 2.52 2.52 0 0 1 .01-.14 2.52 2.52 0 0 1 .02-.13 2.52 2.52 0 0 1 .03-.14 2.52 2.52 0 0 1 .03-.13 2.52 2.52 0 0 1 .04-.13 2.52 2.52 0 0 1 .05-.13 2.52 2.52 0 0 1 .05-.12A2.52 2.52 0 0 1 .95 2a2.52 2.52 0 0 1 .07-.12 2.52 2.52 0 0 1 .07-.12 2.52 2.52 0 0 1 .08-.1 2.52 2.52 0 0 1 .09-.11 2.52 2.52 0 0 1 .09-.1 2.52 2.52 0 0 1 .1-.1 2.52 2.52 0 0 1 .1-.1 2.52 2.52 0 0 1 .1-.08 2.52 2.52 0 0 1 .11-.08 2.52 2.52 0 0 1 .12-.07A2.52 2.52 0 0 1 2 .95 2.52 2.52 0 0 1 2.12.9a2.52 2.52 0 0 1 .12-.05 2.52 2.52 0 0 1 .13-.05A2.52 2.52 0 0 1 2.5.75a2.52 2.52 0 0 1 .13-.03 2.52 2.52 0 0 1 .14-.03A2.52 2.52 0 0 1 2.9.67a2.52 2.52 0 0 1 .14 0 2.52 2.52 0 0 1 .13-.01 2.52 2.52 0 0 1 .4.03 2.52 2.52 0 0 1 .38.1 2.52 2.52 0 0 1 .37.14 2.52 2.52 0 0 1 .33.2 2.52 2.52 0 0 1 .3.26 2.52 2.52 0 0 1 .26.3 2.52 2.52 0 0 1 .2.34 2.52 2.52 0 0 1 .16.37 2.52 2.52 0 0 1 .1.38 2.52 2.52 0 0 1 .02.4 2.52 2.52 0 0 1-.03.39 2.52 2.52 0 0 1-.1.38 2.52 2.52 0 0 1-.14.37 2.52 2.52 0 0 1-.2.33 2.52 2.52 0 0 1-.26.3 2.52 2.52 0 0 1-.3.26 2.52 2.52 0 0 1-.34.2 2.52 2.52 0 0 1-.37.16 2.52 2.52 0 0 1-.38.1 2.52 2.52 0 0 1-.4.02 2.52 2.52 0 0 1-.39-.03 2.52 2.52 0 0 1-.38-.1 2.52 2.52 0 0 1-.37-.14 2.52 2.52 0 0 1-.33-.2 2.52 2.52 0 0 1-.3-.26 2.52 2.52 0 0 1-.26-.3 2.52 2.52 0 0 1-.2-.34 2.52 2.52 0 0 1-.16-.37 2.52 2.52 0 0 1-.1-.38 2.52 2.52 0 0 1-.02-.4z"/><path d="m2.5 4.37.67-.77.68.77h.72l-1.4-1.6-1.39 1.6z"/></g></svg>