<svg xmlns="http://www.w3.org/2000/svg" width="24" height="24" viewBox="0 0 6.35 6.35"><g fill="#fffe77"><path d="M3.17.13a3.04 3.04 0 0 0-.43.03 3.04 3.04 0 0 0-.42.1 3.04 3.04 0 0 0-.4.15 3.04 3.04 0 0 0-.39.2 3.04 3.04 0 0 0-.35.27 3.04 3.04 0 0 0-.3.3 3.04 3.04 0 0 0-.26.35 3.04 3.04 0 0 0-.21.38 3.04 3.04 0 0 0-.15.4 3.04 3.04 0 0 0-.1.43 3.04 3.04 0 0 0-.03.43 3.04 3.04 0 0 0 .03.44 3.04 3.04 0 0 0 .1.42 3.04 3.04 0 0 0 .15.4 3.04 3.04 0 0 0 .2.39 3.04 3.04 0 0 0 .27.35 3.04 3.04 0 0 0 .3.3 3.04 3.04 0 0 0 .35.26 3.04 3.04 0 0 0 .38.21 3.04 3.04 0 0 0 .4.15 3.04 3.04 0 0 0 .43.1 3.04 3.04 0 0 0 .43.03 3.04 3.04 0 0 0 .44-.03 3.04 3.04 0 0 0 .42-.1 3.04 3.04 0 0 0 .4-.15 3.04 3.04 0 0 0 .39-.2 3.04 3.04 0 0 0 .35-.27 3.04 3.04 0 0 0 .3-.3 3.04 3.04 0 0 0 .26-.35 3.04 3.04 0 0 0 .21-.38 3.04 3.04 0 0 0 .15-.4 3.04 3.04 0 0 0 .1-.43 3.04 3.04 0 0 0 .03-.44 3.04 3.04 0 0 0 0-.14 3.04 3.04 0 0 0-.02-.15 3.04 3.04 0 0 0-.02-.15 3.04 3.04 0 0 0-.02-.15 3.04 3.04 0 0 0-.03-.14 3.04 3.04 0 0 0-.04-.15 3.04 3.04 0 0 0-.05-.14 3.04 3.04 0 0 0-.05-.14 3.04 3.04 0 0 0-.06-.14 3.04 3.04 0 0 0-.07-.13 3.04 3.04 0 0 0-.08-.13 3.04 3.04 0 0 0-.08-.13 3.04 3.04 0 0 0-.08-.12 3.04 3.04 0 0 0-.1-.12 3.04 3.04 0 0 0-.09-.1 3.04 3.04 0 0 0-.1-.12 3.04 3.04 0 0 0-.11-.1 3.04 3.04 0 0 0-.11-.1 3.04 3.04 0 0 0-.12-.09 3.04 3.04 0 0 0-.12-.08 3.04 3.04 0 0 0-.13-.08A3.04 3.04 0 0 0 4.6.49a3.04 3.04 0 0 0-.13-.07 3.04 3.04 0 0 0-.14-.06A3.04 3.04 0 0 0 4.2.31a3.04 3.04 0 0 0-.14-.05A3.04 3.04 0 0 0 3.9.22 3.04 3.04 0 0 0 3.77.2a3.04 3.04 0 0 0-.15-.02 3.04 3.04 0 0 0-.15-.02 3.04 3.04 0 0 0-.15-.01 3.04 3.04 0 0 0-.15 0Zm0 .53a2.52 2.52 0 0 1 .14 0 2.52 2.52 0 0 1 .14.01 2.52 2.52 0 0 1 .13.02 2.52 2.52 0 0 1 .14.03 2.52 2.52 0 0 1 .13.03 2.52 2.52 0 0 1 .13.04 2.52 2.52 0 0 1 .13.05 2.52 2.52 0 0 1 .12.05 2.52 2.52 0 0 1 .12.06 2.52 2.52 0 0 1 .12.07 2.52 2.52 0 0 1 .12.07 2.52 2.52 0 0 1 .1.08 2.52 2.52 0 0 1 .11.09 2.52 2.52 0 0 1 .1.09 2.52 2.52 0 0 1 .1.1 2.52 2.52 0 0 1 .1.1 2.52 2.52 0 0 1 .08.1 2.52 2.52 0 0 1 .08.11 2.52 2.52 0 0 1 .07.12A2.52 2.52 0 0 1 5.4 2a2.52 2.52 0 0 1 .06.12 2.52 2.52 0 0 1 .05.12 2.52 2.52 0 0 1 .05.13 2.52 2.52 0 0 1 .04.13 2.52 2.52 0 0 1 .03.13 2.52 2.52 0 0 1 .03.14 2.52 2.52 0 0 1 .02.13 2.52 2.52 0 0 1 0 .14 2.52 2.52 0 0 1 .01.13 2.52 2.52 0 0 1-.03.4 2.52 2.52 0 0 1-.1.38 2.52 2.52 0 0 1-.14.37 2.52 2.52 0 0 1-.2.33 2.52 2.52 0 0 1-.26.3 2.52 2.52 0 0 1-.3.26 2.52 2.52 0 0 1-.34.2 2.52 2.52 0 0 1-.37.16 2.52 2.52 0 0 1-.38.1 2.52 2.52 0 0 1-.4.02 2.52 2.52 0 0 1-.39-.03 2.52 2.52 0 0 1-.38-.1 2.52 2.52 0 0 1-.37-.14 2.52 2.52 0 0 1-.33-.2 2.52 2.52 0 0 1-.3-.26 2.52 2.52 0 0 1-.26-.3 2.52 2.52 0 0 1-.2-.34 2.52 2.52 0 0 1-.16-.37 2.52 2.52 0 0 1-.1-.38 2.52 2.52 0 0 1-.02-.4 2.52 2.52 0 0 1 .03-.39 2.52 2.52 0 0 1 .1-.38 2.52 2.52 0 0 1 .14-.37 2.52 2.52 0 0 1 .2-.33 2.52 2.52 0 0 1 .26-.3 2.52 2.52 0 0 1 .3-.26 2.52 2.52 0 0 1 .34-.2A2.52 2.52 0 0 1 2.4.77a2.52 2.52 0 0 1 .38-.1 2.52 2.52 0 0 1 .4-.02Z"/><path d="M3.73 1.6a.33.33 0 0 0-.12.03.22.22 0 0 0-.05.03l-.02.02-.01.03V4.67l.03.02a.17.17 0 0 0 .05.03.27.27 0 0 0 .08.02h.3a.34.34 0 0 0 .12-.02.22.22 0 0 0 .05-.03l.02-.02.01-.03V1.68l-.03-.02a.17.17 0 0 0-.05-.03.27.27 0 0 0-.08-.02H4zM2.36 1.6a.33.33 0 0 0-.12.03.22.22 0 0 0-.05.03l-.02.02-.01.03V4.67l.03.02a.17.17 0 0 0 .05.03.27.27 0 0 0 .08.02h.3a.34.34 0 0 0 .12-.02.22.22 0 0 0 .05-.03l.02-.02.01-.03V1.68l-.03-.02a.17.17 0 0 0-.05-.03.27.27 0 0 0-.08-.02h-.04z"/></g></svg>