<svg xmlns="http://www.w3.org/2000/svg" xml:space="preserve" width="125" height="125" viewBox="0 0 33.073 33.073"><g stroke="#333" stroke-linejoin="round" transform="translate(-148.074 196.65) scale(1.00013)"><rect width="23.54" height="23.54" x="152.82" y="-191.86" fill="#87694d" stroke-width="1.859" rx="1.83" ry="1.83"/><rect width="14.45" height="3.48" x="157.36" y="-173.95" fill="#767164" stroke-width="1.058" rx="0" ry="0"/></g><path fill="#ccc" stroke="#333" stroke-linejoin="round" stroke-width="1.323" d="m26.455 9.53-5.355 5.4.507 3.258-7.352-1.942-2.567 2.067-1.996-7.338-3.074-1.19 5.355-5.398-.507-3.258 7.352 1.942 2.567-2.068 1.996 7.34z"/><g stroke="#333" transform="translate(3.974 3.18) scale(.9998)"><path fill="#735942" stroke-linejoin="round" stroke-width="1.587" d="M.96.91s.96 16.43 6.88 16.43h9.45c5.93 0 6.88-16.43 6.88-16.43l-8.96 2.12v3.7s-.4 2.12-2.64 2.12-2.65-2.12-2.65-2.12v-3.7z"/><circle cx="2.36" cy="2.31" r="1.13" fill="#767164"/><circle cx="22.77" cy="2.31" r="1.13" fill="#767164"/><circle cx="18.87" cy="15.71" r="1.13" fill="#767164"/><circle cx="6.27" cy="15.71" r="1.13" fill="#767164"/></g><circle cx="9.657" cy="-16.537" r="2.672" fill="#767164" stroke="#333" stroke-width="1.323" transform="rotate(90)"/></svg>