<svg xmlns="http://www.w3.org/2000/svg" xml:space="preserve" width="125" height="125" viewBox="0 0 33.073 33.073"><g stroke="#333" stroke-linejoin="round" transform="translate(3.838 -3.322) scale(.26458)"><rect width="88.97" height="88.97" x="3.51" y="30.57" fill="#88cfe0" stroke-width="7.025" rx="6.9" ry="6.9"/><rect width="54.61" height="13.14" x="20.7" y="98.26" fill="#bbb" stroke-width="5" rx="0" ry="0"/></g><path fill="#ccc" stroke="#333" stroke-linejoin="round" stroke-width="1.323" d="m26.455 9.53-5.355 5.4.507 3.258-7.352-1.942-2.567 2.067-1.996-7.338-3.074-1.19 5.355-5.398-.507-3.258 7.352 1.942 2.567-2.068 1.996 7.34z"/><g stroke="#333" transform="translate(3.974 3.18) scale(.9998)"><path fill="#74b0bf" stroke-linejoin="round" stroke-width="1.587" d="M.96.91s.96 16.43 6.88 16.43h9.45c5.93 0 6.88-16.43 6.88-16.43l-8.96 2.12v3.7s-.4 2.12-2.64 2.12-2.65-2.12-2.65-2.12v-3.7z"/><circle cx="2.36" cy="2.31" r="1.13" fill="#bbb"/><circle cx="22.77" cy="2.31" r="1.13" fill="#bbb"/><circle cx="18.87" cy="15.71" r="1.13" fill="#bbb"/><circle cx="6.27" cy="15.71" r="1.13" fill="#bbb"/></g><circle cx="9.657" cy="-16.537" r="2.672" fill="#bbb" stroke="#333" stroke-width="1.323" transform="rotate(90)"/></svg>