<svg xmlns="http://www.w3.org/2000/svg" xml:space="preserve" width="125" height="125" version="1.1" viewBox="0 0 33.073 33.073"><defs id="defs2"><linearGradient id="linearGradient3274"><stop id="stop3272" offset="0" stop-color="#333" stop-opacity="1"/></linearGradient><style id="style830">.cls-2,.cls-3{stroke:#333;stroke-miterlimit:10;stroke-width:8px}.cls-2{fill:#4d4d4d}.cls-3{fill:#598155}.cls-1{fill:#3f673b;stroke:#333;stroke-miterlimit:10;stroke-width:8px}</style></defs><g id="layer1"><path id="path149764" fill="#ababab" fill-opacity="1" stroke="#333" stroke-dasharray="none" stroke-linecap="round" stroke-linejoin="round" stroke-miterlimit="4" stroke-width="1.059" d="m19.049 9.681.086 1.78 4.001 2.006-1.178 1.332 1.43 4.254-1.78.086-2.007 4.002-1.331-1.178-4.255 1.429-.086-1.78-4.011-2.026 1.197-1.292-1.43-4.254 1.77-.107 2.018-4.03 1.3 1.216z"/><g id="layer1-6-9" transform="translate(3.836 3.835)"><path id="path77847-1" fill="#c74659" fill-opacity="1" stroke="#333" stroke-linecap="round" stroke-linejoin="round" stroke-width="1.058" d="M12.7.53 2.57 1.54 1.54 2.57.53 12.7l1.01 10.13 1.03 1.03 10.13 1.01 10.13-1.01 1.03-1.03 1.01-10.13-1.01-10.13-1.03-1.03Zm.03 2.84 1.5.5 6.89.41.4 6.9.51 1.55-.5 1.5-.41 6.89-6.9.4-1.5.51-1.54-.5-6.9-.41-.4-6.9-.51-1.5.5-1.54.41-6.9 6.9-.4z"/><path id="rect124094-2" fill="#c74659" fill-opacity="1" stroke="#333" stroke-dasharray="none" stroke-linecap="round" stroke-linejoin="round" stroke-miterlimit="4" stroke-width=".596" d="M-3.46 12.27h-8.81V3.46h-.86v8.81h-8.81v.86h8.81v8.81h.86v-8.81h8.81z" transform="rotate(-90)"/><path id="rect59931-7" fill="#767164" fill-opacity="1" stroke="#333" stroke-dasharray="none" stroke-linecap="round" stroke-linejoin="round" stroke-miterlimit="4" stroke-width="1.058" d="M3.19.53c-.83 0-1.73.11-2.14.52C.18 1.93.66 5 .66 5l2.17.5L5 5l.5-2.17L5 .66S4.13.53 3.19.53Zm19.02 0c-.94 0-1.8.13-1.8.13l-.51 2.17.5 2.17 2.17.5 2.17-.5s.48-3.07-.4-3.95c-.4-.4-1.3-.52-2.13-.52zM2.83 19.9l-2.17.5s-.48 3.07.4 3.95c.87.87 3.94.39 3.94.39l.5-2.17L5 20.4Zm19.74 0-2.17.5-.5 2.17.5 2.17s3.07.48 3.95-.4c.87-.87.39-3.94.39-3.94z"/><path id="rect98081-0" fill="#767164" fill-opacity="1" stroke="#333" stroke-dasharray="none" stroke-linecap="round" stroke-linejoin="round" stroke-miterlimit="4" stroke-width=".926" d="m12.7 2.05-1.85 2.03 1.87 3.02 1.83-3.02zm-8.62 8.8L2.05 12.7l2.03 1.85 3.02-1.83zm17.24 0-3.02 1.87 3.02 1.83 2.03-1.85zm-8.62.28a1.57 1.57 0 0 0-1.57 1.57 1.57 1.57 0 0 0 1.57 1.57 1.57 1.57 0 0 0 1.57-1.57 1.57 1.57 0 0 0-1.57-1.57zm.02 7.17-1.87 3.02 1.85 2.03 1.85-2.03z"/></g></g></svg>