<svg xmlns="http://www.w3.org/2000/svg" xml:space="preserve" width="125" height="125" version="1.1" viewBox="0 0 33.073 33.073"><defs id="defs2"><linearGradient id="linearGradient3274"><stop id="stop3272" offset="0" stop-color="#333" stop-opacity="1"/></linearGradient><style id="style830">.cls-2,.cls-3{stroke:#333;stroke-miterlimit:10;stroke-width:8px}.cls-2{fill:#4d4d4d}.cls-3{fill:#598155}.cls-1{fill:#3f673b;stroke:#333;stroke-miterlimit:10;stroke-width:8px}</style></defs><g id="layer1"><path id="path149764" fill="#ababab" fill-opacity="1" stroke="#333" stroke-dasharray="none" stroke-linecap="round" stroke-linejoin="round" stroke-miterlimit="4" stroke-width="1.059" d="m19.049 9.681.086 1.78 4.001 2.006-1.178 1.332 1.43 4.254-1.78.086-2.007 4.002-1.331-1.178-4.255 1.429-.086-1.78-4.011-2.026 1.197-1.292-1.43-4.254 1.77-.107 2.018-4.03 1.3 1.216Z"/><g id="layer1-6-3" transform="translate(21.334 15.13)"><path id="path77847-7" fill="#767164" fill-opacity="1" stroke="#333" stroke-linecap="round" stroke-linejoin="round" stroke-width="1.058" d="m-4.8-10.76-10.13 1-1.03 1.04-1 10.13 1 10.13 1.03 1.03 10.13 1 10.13-1 1.03-1.03L7.37 1.4l-1-10.13-1.04-1.03Zm.03 2.84 1.5.5 6.9.4.4 6.9.5 1.56-.5 1.5-.4 6.89-6.9.4-1.5.5-1.55-.5-6.9-.4-.4-6.9-.5-1.5.5-1.54.4-6.9 6.9-.4z"/><path id="rect124094-45" fill="#767164" fill-opacity="1" stroke="#333" stroke-dasharray="none" stroke-linecap="round" stroke-linejoin="round" stroke-miterlimit="4" stroke-width=".596" d="M-5.23-7.83v8.8h-8.8v.87h8.8v8.8h.86v-8.8h8.81V.98h-8.8v-8.81z"/><path id="rect59931-2" fill="#a96b52" fill-opacity="1" stroke="#333" stroke-dasharray="none" stroke-linecap="round" stroke-linejoin="round" stroke-miterlimit="4" stroke-width="1.058" d="M-14.3-10.76c-.84 0-1.74.1-2.15.52-.87.88-.39 3.95-.39 3.95l2.17.5 2.17-.5.5-2.17-.5-2.17s-.87-.13-1.8-.13zm19.01 0c-.94 0-1.8.13-1.8.13l-.5 2.17.5 2.17 2.16.5 2.17-.5s.48-3.07-.4-3.95c-.4-.4-1.3-.52-2.13-.52zM-14.67 8.6l-2.17.5s-.48 3.07.4 3.95c.87.87 3.94.39 3.94.39l.5-2.17-.5-2.17Zm19.74 0-2.17.5-.5 2.17.5 2.17s3.07.48 3.95-.4c.87-.87.4-3.94.4-3.94z"/><path id="rect98081-54" fill="#a96b52" fill-opacity="1" stroke="#333" stroke-dasharray="none" stroke-linecap="round" stroke-linejoin="round" stroke-miterlimit="4" stroke-width=".926" d="m-4.8-9.24-1.85 2.03 1.87 3.02 1.83-3.02zm-8.62 8.8-2.03 1.85 2.03 1.85 3.02-1.83zm17.24 0L.8 1.43l3.02 1.83L5.85 1.4Zm-8.62.28A1.57 1.57 0 0 0-6.37 1.4 1.57 1.57 0 0 0-4.8 2.98 1.57 1.57 0 0 0-3.23 1.4 1.57 1.57 0 0 0-4.8-.16ZM-4.78 7l-1.87 3.02 1.85 2.03 1.85-2.03z"/></g></g></svg>