<svg xmlns="http://www.w3.org/2000/svg" xml:space="preserve" width="125" height="125" version="1.1" viewBox="0 0 33.073 33.073"><defs id="defs2"><linearGradient id="linearGradient3274"><stop id="stop3272" offset="0" stop-color="#333" stop-opacity="1"/></linearGradient><style id="style830">.cls-2,.cls-3{stroke:#333;stroke-miterlimit:10;stroke-width:8px}.cls-2{fill:#4d4d4d}.cls-3{fill:#598155}.cls-1{fill:#3f673b;stroke:#333;stroke-miterlimit:10;stroke-width:8px}</style></defs><g id="layer1"><path id="path149764" fill="#ababab" fill-opacity="1" stroke="#333" stroke-dasharray="none" stroke-linecap="round" stroke-linejoin="round" stroke-miterlimit="4" stroke-width="1.059" d="m19.049 9.681.086 1.78 4.001 2.006-1.178 1.332 1.43 4.254-1.78.086-2.007 4.002-1.331-1.178-4.255 1.429-.086-1.78-4.011-2.026 1.197-1.292-1.43-4.254 1.77-.107 2.018-4.03 1.3 1.216z"/><g id="g96013" transform="translate(-376.171 162.415)"><path id="path77847" fill="#3fc57d" fill-opacity="1" stroke="#333" stroke-linecap="round" stroke-linejoin="round" stroke-width="1.058" d="m392.7-158.05-10.12 1.01-1.03 1.03-1.01 10.13 1 10.13 1.04 1.03 10.13 1.01 10.13-1.01 1.03-1.03 1-10.13-1-10.13-1.03-1.03zm.04 2.84 1.5.5 6.89.41.4 6.9.5 1.55-.5 1.5-.4 6.89-6.9.4-1.5.51-1.54-.5-6.9-.41-.4-6.9-.51-1.5.5-1.54.4-6.9 6.9-.4z"/><path id="rect124094" fill="#3fc57d" fill-opacity="1" stroke="#333" stroke-dasharray="none" stroke-linecap="round" stroke-linejoin="round" stroke-miterlimit="4" stroke-width=".596" d="M392.28-155.12v8.81h-8.81v.86h8.8v8.81h.87v-8.81h8.8v-.86h-8.8v-8.81z"/><path id="rect59931" fill="#767164" fill-opacity="1" stroke="#333" stroke-dasharray="none" stroke-linecap="round" stroke-linejoin="round" stroke-miterlimit="4" stroke-width="1.058" d="M383.2-158.05c-.83 0-1.73.11-2.14.52-.87.88-.4 3.95-.4 3.95l2.18.5 2.17-.5.5-2.17-.5-2.17s-.87-.13-1.81-.13zm19.02 0c-.94 0-1.8.13-1.8.13l-.51 2.17.5 2.17 2.17.5 2.17-.5s.48-3.07-.4-3.95c-.4-.4-1.3-.52-2.13-.52zm-19.38 19.37-2.17.5s-.48 3.07.4 3.95c.87.87 3.94.39 3.94.39l.5-2.17-.5-2.17zm19.74 0-2.17.5-.5 2.17.5 2.17s3.07.48 3.95-.4c.87-.87.39-3.94.39-3.94z"/><path id="rect98081" fill="#767164" fill-opacity="1" stroke="#333" stroke-dasharray="none" stroke-linecap="round" stroke-linejoin="round" stroke-miterlimit="4" stroke-width=".926" d="m392.7-156.53-1.84 2.03 1.87 3.02 1.83-3.02zm-8.61 8.8-2.03 1.85 2.03 1.85 3.02-1.83zm17.24 0-3.02 1.87 3.02 1.83 2.03-1.85zm-8.62.28a1.57 1.57 0 0 0-1.57 1.57 1.57 1.57 0 0 0 1.57 1.57 1.57 1.57 0 0 0 1.57-1.57 1.57 1.57 0 0 0-1.57-1.57zm.02 7.17-1.87 3.02 1.85 2.03 1.85-2.03z"/></g></g></svg>