<svg xmlns="http://www.w3.org/2000/svg" height="250" width="250"><g stroke-width="5"><path d="M47 57.4c-1.4 4 4.7 14 5.4 18 .7 4.2-1.5 15.7 1.2 18.9 2.7 3.1 14.4 3 18.3 4.4 4 1.4 12.8 9 16.9 8.3 4-.7 9.8-11 13-13.7 3.1-2.6 14.2-6.5 15.6-10.4 1.4-4-4.6-14-5.4-18-.7-4.2 1.5-15.7-1.2-18.9-2.7-3.1-14.4-3-18.3-4.3s-12.8-9.1-16.9-8.4c-4 .8-9.7 11-13 13.7-3 2.7-14.2 6.6-15.6 10.4zm163 121.9c-2 3.6-13.7 5.5-17.3 7.5-3.5 2-11 11.2-15.1 11.2-4.2 0-11.6-9.1-15.2-11.2-3.5-2-15.1-4-17.2-7.5-2-3.6 2-14.6 2-18.7 0-4.2-4-15.1-2-18.7 2-3.6 13.7-5.5 17.2-7.6 3.6-2 11-11.1 15.2-11.1 4.1 0 11.6 9 15.1 11.1 3.6 2.1 15.2 4 17.3 7.6 2 3.6-2.1 14.5-2.1 18.7 0 4.1 4.2 15.1 2 18.7z" fill="#5e823b" stroke="#333"/><g stroke-width="4"><path d="M148.5 204.3c-8.5 2.4-21 19.5-29.8 18.8-8.8-.7-18.7-19.5-26.7-23.2-8-3.7-28.5 1.2-34.8-5-6.2-6.3-1.9-27.2-5.7-35.2-3.8-8-22.5-17.6-23.4-26.5-.9-8.9 15.7-22 17.9-30.6 2.2-8.6-6.1-28.3-1.1-35.6 5-7.4 26-6.6 33-11.8 7.2-5.2 13.3-25.6 21.8-28 8.4-2.4 24 11.9 32.8 12.5 8.8.7 26.4-11 34.4-7.3s11 24.8 17.2 31c6.3 6.3 27.2 8.8 31 16.8 3.8 8-7.3 26.2-6.5 35 .9 8.9 15.3 24.4 13.1 33-2.2 8.7-22.2 15.3-27.2 22.6-5 7.4-3.7 28.7-10.9 33.9-7.1 5.2-26.6-2.8-35.1-.4z" fill="#5e823b" stroke="#333" stroke-width="4.89"/><path d="M142.9 185.5c-6.5 1.9-16 14.8-22.7 14.3-6.7-.5-14.2-14.8-20.3-17.6-6-2.8-21.6.9-26.4-3.8-4.8-4.8-1.4-20.6-4.3-26.7-3-6.1-17.2-13.4-17.8-20.2-.7-6.7 11.9-16.7 13.6-23.3 1.6-6.5-4.7-21.4-1-27 3.9-5.6 19.9-5 25.3-9 5.4-3.9 10-19.4 16.5-21.2 6.4-1.9 18.3 9 25 9.5 6.6.5 20-8.4 26-5.6 6.1 2.8 8.4 18.9 13.2 23.6 4.7 4.7 20.6 6.7 23.5 12.8 2.9 6-5.6 19.8-5 26.6.7 6.7 11.7 18.5 10 25-1.7 6.6-16.9 11.6-20.6 17.2-3.8 5.6-3 21.8-8.3 25.7-5.5 4-20.3-2-26.7-.3z" fill="#678f41"/><path d="M139.3 173.5c-5.2 1.4-12.8 11.8-18.1 11.4-5.4-.4-11.4-11.9-16.2-14-5-2.3-17.4.6-21.2-3.2-3.8-3.7-1.1-16.4-3.5-21.3-2.3-4.9-13.7-10.7-14.2-16.1-.5-5.4 9.6-13.4 10.9-18.6 1.3-5.3-3.7-17.2-.7-21.7 3-4.4 15.8-4 20.1-7.1 4.4-3.2 8-15.6 13.2-17 5.2-1.5 14.7 7.1 20 7.6 5.3.4 16-6.7 20.9-4.5 4.8 2.3 6.6 15 10.5 18.9 3.8 3.8 16.5 5.3 18.8 10.2 2.3 4.9-4.5 15.9-4 21.3.6 5.3 9.3 14.8 8 20-1.3 5.3-13.5 9.3-16.5 13.8-3 4.4-2.3 17.4-6.7 20.5-4.3 3.2-16.2-1.7-21.3-.2z" fill="#719e48"/></g><path d="M147.4 162.5c-4.8 2.7-10 14.9-15.3 15.8-5.5.8-14.2-9.1-19.6-10.2-5.4-1-17.2 4.9-21.9 2-4.7-2.8-5.1-16.1-8.6-20.5-3.5-4.3-16.3-7.4-18.1-12.6-1.8-5.3 6.3-15.7 6.4-21.2 0-5.6-7.9-16.3-6-21.5 2-5.2 14.9-7.8 18.4-12C86.3 78 87 64.8 91.8 62c4.8-2.7 16.4 3.7 21.8 2.8 5.4-.9 14.4-10.5 19.8-9.5s10.3 13.5 15 16.3c4.7 2.9 17.8 1.4 21.3 5.7 3.5 4.3-.7 17 1.2 22.2 1.8 5.2 12.8 12.6 12.8 18.1-.1 5.6-11.3 12.5-13.2 17.7-2 5.2 1.9 18-1.7 22.2-3.6 4.2-16.6 2.2-21.4 4.9z" fill="#5e823b" stroke="#333"/><path d="M132.6 151c-3.5 1-8.8 8.1-12.5 7.8-3.6-.2-7.8-8.1-11.1-9.7-3.4-1.5-12 .5-14.6-2-2.6-2.7-.8-11.4-2.4-14.8-1.5-3.3-9.4-7.4-9.8-11-.3-3.8 6.6-9.3 7.5-12.9 1-3.6-2.5-11.8-.4-14.9 2-3 10.8-2.8 13.8-5 3-2.1 5.6-10.6 9.1-11.6s10 5 13.8 5.2c3.6.3 11-4.6 14.3-3 3.4 1.5 4.6 10.3 7.3 13 2.6 2.5 11.3 3.6 13 7 1.5 3.3-3.2 10.9-2.8 14.6.4 3.7 6.4 10.2 5.5 13.8-1 3.6-9.3 6.4-11.4 9.5-2 3-1.6 12-4.6 14.1-3 2.2-11.1-1.1-14.7-.1z" fill="#678f41"/><path d="M130.8 145.4c-2.9.8-7.2 6.6-10.2 6.4-3-.2-6.3-6.7-9-8-2.8-1.2-9.8.5-12-1.6-2-2.2-.6-9.3-1.9-12-1.3-2.8-7.7-6-8-9-.3-3.1 5.4-7.6 6.1-10.5.8-3-2-9.7-.4-12.2 1.7-2.5 9-2.2 11.4-4 2.4-1.8 4.5-8.7 7.4-9.6 2.8-.8 8.2 4.1 11.2 4.3 3 .3 9-3.7 11.7-2.5 2.7 1.3 3.7 8.5 5.9 10.6 2.1 2.1 9.3 3 10.5 5.8 1.3 2.7-2.5 8.9-2.2 11.9.3 3 5.2 8.3 4.5 11.3-.7 3-7.6 5.2-9.3 7.7-1.7 2.5-1.3 9.7-3.7 11.5-2.4 1.8-9.1-1-12-.1z" fill="#719e48"/></g></svg>