<svg xmlns="http://www.w3.org/2000/svg" width="24" height="24" viewBox="0 0 6.35 6.35"><g transform="translate(.04 .01)"><rect width="1.19" height="1.01" x="2.54" y=".44" rx=".11" ry=".38" style="opacity:1;fill:#b98b4e;fill-opacity:1;stroke-width:1.85208;stroke-linecap:round"/><g style="opacity:1;stroke-width:1.42158"><path d="M11.06 9.07s.09.2 0 .55c-.13.6-.56 1.04-.96 1.26-.91.48-1.2 1.61-1.12 2.53.08 1 .8 2.53 1.68 2.53h2.9c.87 0 1.59-1.52 1.67-2.53.08-.92-.2-2.05-1.12-2.53-.5-.26-.8-.64-.96-1.24-.09-.36 0-.57 0-.57z" style="opacity:1;fill:#bfdddb;fill-opacity:1;stroke-width:2.63288;stroke-linecap:round" transform="matrix(.703 0 0 .703 -5.38 -5.33)"/><path d="M13.97 11.8s-.54.3-.96.21c-.5-.1-1.01-.4-1.45-.38-.43.03-1.25.35-1.25.35-.9.25-.88-.07-1 1.25-.08.77.72 2.44 1.5 2.44h2.59c.78 0 1.5-1.56 1.5-2.35 0-.93 0-1.52-.93-1.52z" style="opacity:1;fill:#b73030;fill-opacity:1;stroke-width:2.63288;stroke-linecap:round" transform="matrix(.703 0 0 .703 -5.38 -5.33)"/></g><circle cx="3.67" cy="5.09" r=".36" style="opacity:1;fill:#9c2929;fill-opacity:1;stroke-width:1.85208;stroke-linecap:round"/><circle cx="3.27" cy="4.41" r=".14" style="opacity:1;fill:#9c2929;fill-opacity:1;stroke-width:1.85208;stroke-linecap:round"/><circle cx="1.96" cy="4.84" r=".14" style="opacity:1;fill:#9c2929;fill-opacity:1;stroke-width:1.85208;stroke-linecap:round"/><circle cx="4.67" cy="3.41" r=".14" style="opacity:1;fill:#9c2929;fill-opacity:1;stroke-width:1.85208;stroke-linecap:round"/><circle cx="2.26" cy="4.46" r=".14" style="opacity:1;fill:#9c2929;fill-opacity:1;stroke-width:1.85208;stroke-linecap:round"/><circle cx="1.85" cy="3.97" r=".14" style="opacity:1;fill:#9c2929;fill-opacity:1;stroke-width:1.85208;stroke-linecap:round"/><path d="M2.54 1.04c0 .21.05.38.1.38h.98c.06 0 .1-.17.1-.37v-.01z" style="opacity:.484302;fill:#b98b4e;fill-opacity:1;stroke-width:1.85208;stroke-linecap:round"/><circle cx="2.92" cy=".79" r=".14" style="opacity:1;fill:#aa7e43;fill-opacity:1;stroke-width:1.85208;stroke-linecap:round"/></g></svg>
