<svg xmlns="http://www.w3.org/2000/svg" xml:space="preserve" width="24" height="24" viewBox="0 0 6.35 6.35"><path d="M12.43-2.17s-.66.46-1.05.55c-.33.09-1.04 0-1.04 0s-.2 2.4.13 3.22c.37.91 1.96 1.8 1.96 1.8s1.59-.89 1.96-1.8c.33-.83.12-3.22.12-3.22s-.7.09-1.04 0c-.38-.1-1.04-.55-1.04-.55z" style="fill:#ddd;fill-opacity:1;stroke:none;stroke-width:.06628;stroke-linecap:round;stroke-linejoin:round;stroke-opacity:1" transform="translate(-9.25 2.56)"/><path d="M12.42-1.7a3.7 3.7 0 0 1-.86.46c-.28.07-.87 0-.87 0s-.17 1.99.11 2.68c.3.74 1.56 1.45 1.62 1.48z" style="fill:#f7f7f7;fill-opacity:1;stroke:none;stroke-width:.0551182;stroke-linecap:round;stroke-linejoin:round;stroke-opacity:1" transform="translate(-9.25 2.56)"/></svg>