<svg xmlns="http://www.w3.org/2000/svg" xml:space="preserve" width="160" height="160" viewBox="0 0 42.33 42.33"><g fill="#bbb" stroke="#333" stroke-linejoin="round" stroke-width="1.32" transform="translate(144.29 -55.72)"><circle cx="-133.17" cy="85.77" r="1.7"/><circle cx="-133.17" cy="79.81" r="1.7"/><circle cx="-133.17" cy="73.84" r="1.7"/><circle cx="-113.07" cy="85.77" r="1.7"/><circle cx="-113.07" cy="79.81" r="1.7"/><circle cx="-113.07" cy="73.84" r="1.7"/></g><g stroke="#333" stroke-linejoin="round" stroke-width="1.32"><path fill="#9f9f9f" d="M15.76 33.99h10.82l.53 2.75H15.23z"/><path fill="#bbb" d="M14.83 39.38s4.22-.52 6.34-.52 6.34.53 6.34.53l.53-2.75s-4.52-.53-6.8-.53c-2.32 0-6.94.53-6.94.53z"/></g><path fill="#905b46" stroke="#333" stroke-linejoin="round" stroke-width="1.59" d="M11.84 26.18H30.5v7.65l-4.63.53h-9.4l-4.64-.53z"/><path fill="#a96b52" stroke="#333" stroke-linejoin="round" stroke-width="1.59" d="M23.7 3.82c5.13 3.46 7.54 11.06 6.95 17.22l-.17 4.05H11.79l-.17-4.05c-.27-6.19 1.82-13.76 6.95-17.22a4.9 4.9 0 0 1 5.13 0z"/><path fill="#d6db5e" stroke="#333" stroke-linecap="round" stroke-linejoin="round" stroke-width="1.32" d="M11.66 24.81h19v3.11h-19z" paint-order="markers fill stroke"/><path fill="none" stroke="#333" stroke-width="1.25" d="m-163.05 6.36 1.73-4.31m2.61 4.31 1.72-4.31m2.61 4.31 1.73-4.31m2.61 4.31 1.72-4.31m2.36 2" transform="matrix(.9763 0 0 .7387 172.82 23.27)"/><g stroke="#333" stroke-linejoin="round" stroke-width="1.06"><path fill="#bbb" d="M22.86 8.53c3.38 2.29 4.97 7.84 4.58 11.92l-.26 2.68H15.16l-.26-2.68c-.38-4.08 1.2-9.63 4.58-11.92a3.2 3.2 0 0 1 3.38 0z"/><path fill="#9f9f9f" d="M22.28 10.8c2.3 1.75 3.38 5.58 3.11 8.68l-.17 2.05h-8.16l-.18-2.05c-.26-3.1.82-6.93 3.11-8.68a2 2 0 0 1 2.3 0z"/></g></svg>