<svg xmlns="http://www.w3.org/2000/svg" width="48" height="48" viewBox="0 0 12.7 12.7"><g transform="rotate(45.03 26.398 -23.323) scale(.133)"><path fill="#646055" stroke="#333" stroke-linejoin="round" stroke-width="3" d="M245.89 56.708h10l2 32-2 36h-10l-2-36z"/><path fill="none" stroke="#ae8971" stroke-width="3" d="M222.306 85.04s22.808 30 28.585 30c5.777 0 28.585-30 28.585-30"/><path fill="#c95353" stroke="#333" stroke-width="2" d="m250.913 97.343 5.55 7.42.93 10.58-6.5-1.052-6.5 1.054.97-10.58z"/><path fill="#825c46" stroke="#333" stroke-width="2" d="M248.89 58.79h4v55.5h-4z"/><path fill="#aaa" stroke="#333" stroke-width="2" d="M246.008 58.556c-.44-.982 4.003-10.905 4.883-10.905.879 0 5.323 9.924 4.883 10.904-.44.98-9.326.98-9.766 0z"/><path fill="#ccc" d="M251.648 57.548c.34-.743-.544-8.078-.972-8.06-.427.017-3.87 7.53-3.783 8.256.087.725 4.414.546 4.755-.197z"/><path fill="#a96b52" stroke="#333" stroke-linecap="round" stroke-linejoin="round" stroke-width="3" d="M222.493 80.222c1.067 3.151 4.932 9.921-3.422 3.7-3.126-2.327-5.537-5.256-5.537-7.665s-1.07-3.767 4.942-2.18c3.769.993 3.245 3.864 4.017 6.145z" paint-order="markers fill stroke"/><path fill="#767164" stroke="#333" stroke-linecap="round" stroke-linejoin="round" stroke-width="3" d="m223.439 71.067 6.639-1.645 6.644 1.297.198-8.921-9.384-1.454z" paint-order="markers fill stroke"/><path fill="#646055" stroke="#333" stroke-linecap="round" stroke-linejoin="round" stroke-width="3" d="m216.037 71.343 2.974-6.278 1.187 3.128 6.632-5.211-.056 7.864-5.582 5.123z" paint-order="markers fill stroke"/><path fill="#a96b52" stroke="#333" stroke-linecap="round" stroke-linejoin="round" stroke-width="3.00132" d="M279.308 80.212c-1.066 3.152-4.93 9.922 3.424 3.7 3.127-2.328 5.538-5.254 5.538-7.666 0-2.411 1.07-3.768-4.944-2.18-3.769.994-3.243 3.863-4.014 6.146z" paint-order="markers fill stroke"/><path fill="#646055" stroke="#333" stroke-linecap="round" stroke-linejoin="round" stroke-width="3.00132" d="m278.363 71.057-6.638-1.649-6.645 1.3-.197-8.92 9.382-1.46z" paint-order="markers fill stroke"/><path fill="#767164" stroke="#333" stroke-linecap="round" stroke-linejoin="round" stroke-width="3.00132" d="m285.768 71.332-2.975-6.278-1.187 3.126-6.634-5.213-1.943 7.866 7.583 5.126z" paint-order="markers fill stroke"/><path fill="#a96b52" stroke="#333" stroke-linejoin="round" stroke-width="3" d="m236.349 60.958 14.542-2 14.542 2v9.694l-14.542 2-14.542-2z"/><path fill="#905b46" d="m250.807 60.454 13.109 1.786.005 7.183-13.026 1.74z"/><circle cx="258.891" cy="65.805" r="2.457" fill="#9f9f9f" stroke="#333" stroke-width="2"/><circle cx="242.891" cy="65.805" r="2.457" fill="#bbb" stroke="#333" stroke-width="2"/><path fill="#767164" stroke="#333" stroke-linecap="round" stroke-linejoin="round" stroke-width="3" d="M243.04 125.708h15.701v5.234H243.04Z" paint-order="markers fill stroke"/></g></svg>