<svg xmlns="http://www.w3.org/2000/svg" width="48" height="48" viewBox="0 0 12.7 12.7"><path fill="#36a86a" stroke="#333" stroke-linejoin="round" stroke-width=".397" d="m8.867 2.91.935.935L6.622 7.4l-3.555 3.18-.935-.935 3.18-3.555z"/><path fill="none" stroke="#ddb474" stroke-width=".35" d="M4.704 3.787S2.486 7.817 3.69 9.02s5.379-1.13 5.379-1.13"/><path fill="#c95353" stroke="#333" stroke-width=".25" d="M5.536 7.18 5.36 8.395 4.458 9.47l-.51-.706-.706-.51 1.08-.899z"/><path fill="#825c46" stroke="#333" stroke-width=".25" d="m8.952 3.385.375.375L4.136 8.95l-.375-.375z"/><path fill="#aaa" stroke="#333" stroke-width=".25" d="M8.705 3.093c.05-.132 1.395-.645 1.477-.563.082.083-.43 1.426-.563 1.477-.133.05-.965-.781-.914-.914z"/><path fill="#ccc" d="M9.327 3.527c.101-.038.705-.807.663-.845-.042-.039-1.066.342-1.126.419-.06.075.361.463.463.426z"/><path fill="#3fc57d" stroke="#333" stroke-linecap="round" stroke-linejoin="round" stroke-width=".397" d="m5.533 1.951-.926.98s-.094.811.098 1.012c.083.087.432-.336.513-.333.365.017 1.642.305 1.642.305l.672-.557-1.68-.458c-.598-.163-.32-.949-.32-.949zm5.22 5.22-.98.926S8.962 8.19 8.76 8c-.087-.084.336-.433.333-.514-.017-.365-.305-1.642-.305-1.642l.557-.672.459 1.68c.162.598.948.32.948.32z"/><path fill="#bbb" stroke="#333" stroke-linejoin="round" stroke-width=".3" d="m7.76 2.445.167 1.183-.973-.497zm2.562 2.426-1.184-.167.497.973z"/><path fill="#a175ca" stroke="#333" stroke-linejoin="round" stroke-width=".5" d="m7.127 3.733-.695.695 1.242.613.61 1.24.696-.696-.628-1.222z"/><path fill="#905dc1" stroke="#333" stroke-linejoin="round" stroke-width=".397" d="m7.189 3.002-.577.577 1.598.926.924 1.596.576-.576-.941-1.578z"/><path fill="#3fc57d" stroke="#333" stroke-linecap="round" stroke-linejoin="round" stroke-width=".397" d="m1.771 9.472 1.47 1.469-.49.49-1.47-1.47z" paint-order="markers fill stroke"/><path fill="#a175ca" stroke="#333" stroke-linejoin="round" stroke-width=".25" d="M10.852 8.104c.361-.36-.216-.938-.6-.6L8.535 9.02s1.782-.402 2.318-.916zM4.608 1.86c.361-.36.938.216.6.6L3.692 4.179s.402-1.783.916-2.32z"/><path fill="#7b4fa4" stroke="#333" stroke-linejoin="round" stroke-width=".25" d="M5.39 1.413c-.158-.15-.394-.182-.603.027-.223.231-.716.312-.776.798l.945-.068c-.4.65-.703 1.29-.415 1.866l.954-1.889a.626.626 0 0 0-.105-.734zm5.894 5.894a.626.626 0 0 0-.719-.089l-1.889.954c.577.288 1.217-.016 1.867-.415l-.068.945c.485-.062.566-.554.798-.776.216-.215.174-.461.011-.619z"/></svg>