<svg xmlns="http://www.w3.org/2000/svg" width="48" height="48" viewBox="0 0 12.7 12.7"><g transform="rotate(45 2.688 9.553) scale(.68998)"><g stroke="#333" stroke-linejoin="round" stroke-width=".8" transform="translate(-4.911 -2.324) scale(.78682)"><rect width="2.321" height="13.295" x="7.985" y="4.961" fill="#36a86a" rx="1.338" ry="1.338"/><rect width="2.321" height="13.295" x="13.276" y="4.961" fill="#36a86a" rx="1.338" ry="1.338"/><rect width="3.175" height="13.825" x="10.204" y="4.696" fill="#3fc57d" rx="1.338" ry="1.338"/></g><g transform="translate(-4.911 -2.265) scale(.78682)"><circle cx="11.791" cy="11.533" r="2.698" fill="#d0cbb7" stroke="#333" stroke-width=".66"/><path stroke="#333" stroke-linecap="round" stroke-width=".263" d="M11.79 9.423v.419m0 3.381v.42m-2.11-2.11h.42m3.381 0h.42"/><path stroke="#333" stroke-linecap="round" stroke-width=".268" d="m10.088 10.55.126.073m3.156 1.822.125.072m-2.687.72.073-.126m1.822-3.155.072-.126m-1.968 0 .073.125m1.822 3.156.072.126m-2.687-.72.126-.073m3.156-1.822.125-.072"/><circle cx="11.791" cy="11.533" r=".152" fill="#333"/><rect width=".21" height="1.291" x="16.244" y="-3.199" fill="#333" rx=".194" ry=".194" transform="rotate(51.375)"/><rect width=".21" height=".762" x="12.313" y="10.704" fill="#333" rx=".194" ry=".194" transform="rotate(3.204)"/></g><rect width="7.456" height="1.839" x="8.103" y="6.121" fill="#646055" stroke="#333" stroke-linecap="round" stroke-width=".8" rx="0" ry="0" transform="matrix(.79474 0 0 .65106 -5.06 -1.182)"/><rect width="3.255" height="1.839" x="10.203" y="6.121" fill="#666" stroke="#333" stroke-linejoin="round" stroke-width=".8" rx="0" ry="0" transform="matrix(.79474 0 0 .65106 -5.06 -1.182)"/><rect width="3.255" height="1.839" x="10.203" y="6.121" fill="#767164" stroke="#333" stroke-linejoin="round" stroke-width=".8" rx="0" ry="0" transform="matrix(.79474 0 0 .65106 -5.06 -1.182)"/><g fill="#666" stroke="#333" stroke-linejoin="round" stroke-width=".8" transform="matrix(.79474 0 0 .65106 -5.06 5.696)"><rect width="7.456" height="1.839" x="8.103" y="6.121" fill="#646055" rx="0" ry="0"/><rect width="3.255" height="1.839" x="10.203" y="6.121" fill="#767164" rx="0" ry="0"/></g></g></svg>