<svg xmlns="http://www.w3.org/2000/svg" width="48" height="48" viewBox="0 0 12.7 12.7"><g stroke="#333" stroke-linecap="round" stroke-linejoin="round" transform="rotate(-45 11.81 8.061) scale(.10583)"><path fill="#3fc57d" fill-rule="evenodd" stroke-miterlimit="10" stroke-width="4" d="M140.687 9.724c5.29 4.56 9.114 8.297 5.025 11.123 0 0-9.27-4.778-13.079-3.001-2.809 1.31-1.417 9.188-1.417 9.188l-8.485-.53s-4.381-4.966-6.045-7.534c-6.039-9.317-21.368-7.096-21.368-6.96 2.493-5.286 8.372-9.423 21.826-8.95 2.03.071 8.318 6.645 10.376 6.398 3.968-.476.9-4.96.9-4.96 6.121.67 10.39 3.608 12.267 5.226z"/><rect width="100.8" height="13.2" x="-135.905" y="26.469" fill="#767164" stroke-width="5.109" rx="4.005" ry="16.495" transform="scale(-1 1)"/><path fill="#a175ca" fill-rule="evenodd" stroke-miterlimit="10" stroke-width="4" d="M115.99 22.914h7.425l-3.359 9.911 3.36 9.888h-7.425l-3.182-9.888z"/><circle cx="133.875" cy="32.5" r="7.625" fill="#d4af37" fill-rule="evenodd" stroke-miterlimit="10" stroke-width="4"/><path fill="#905dc1" fill-rule="evenodd" stroke-miterlimit="10" stroke-width="4.173" d="M123.456 22.237h7.931L127.8 32.825l3.588 10.563h-7.931l-3.4-10.563z"/><path fill="#3fc57d" fill-rule="evenodd" stroke-miterlimit="10" stroke-width="4" d="M30.84 21.621h8.984L35.76 33.615l4.064 11.965H30.84l-3.85-11.965z"/></g></svg>