<svg xmlns="http://www.w3.org/2000/svg" xml:space="preserve" width="48" height="48" viewBox="0 0 12.7 12.7"><g stroke="#333" transform="rotate(-45 13.51 11.197) scale(.33)"><rect width="21.973" height="2.74" x="-40.098" y="-9.671" fill="#bf907d" stroke-width="1.3" rx=".311" ry="1.37" transform="scale(-1)"/><path fill="#a96b52" stroke-linejoin="round" stroke-width=".8" d="M18.654 10.018H17.47V6.583h1.184z"/><path fill="#646055" stroke-linecap="round" stroke-linejoin="round" stroke-width="1.058" d="M47.778 6.574c.43-1.495 1.906-.059 2.834-.068 1.592-.017 4.188.758 4.188.758s-2.072 2.152-3.951 2.289c-.747.054-1.451-.456-1.953-.91-.62-.56-1.328-1.335-1.118-2.07z"/><path fill="#767164" stroke-linecap="round" stroke-linejoin="round" stroke-width="1.058" d="M46.37 9.812c1.78.508 2.902.636 3.41.004.872-1.084-1.956-1.911-1.956-1.911s-1.744-3.016-2.894-1.8c-.457.484-.306 1.241-.105 1.83.248.725.672 1.628 1.546 1.877z"/><path fill="#767164" stroke-linecap="round" stroke-linejoin="round" stroke-width="1.058" d="M44.622 5.834c1.78-.507 2.902-.635 3.41-.004.872 1.085-1.957 1.912-1.957 1.912s-1.743 3.016-2.893 1.8c-.458-.484-.307-1.242-.106-1.83.249-.725.672-1.628 1.546-1.878Z"/><path fill="#8a867b" stroke-linecap="round" stroke-linejoin="round" stroke-width="1.058" d="M41.405 6.131c1.51-.92 1.507.952 2.225 1.43 1.233.82 2.61 2.77 2.61 2.77s-3.287.566-4.835-.312c-.615-.35-.752-1.108-.778-1.718-.032-.753.037-1.718.778-2.17Z"/><path fill="#a96b52" stroke-linejoin="round" d="M39.782 10.706h1.588v-4.81h-1.588l-.53 2.405z"/></g></svg>