<svg xmlns="http://www.w3.org/2000/svg" width="48" height="48" viewBox="0 0 12.7 12.7"><g stroke="#333"><path fill="#767164" stroke-linejoin="round" stroke-width=".422" d="m7.75 5.58-4.79 4.78c-.03.04-.2-.06-.38-.24-.18-.17-.28-.35-.24-.38l4.78-4.79c.04-.04.21.07.39.24.17.18.28.35.24.39z"/><path fill="#3fc57d" stroke-linejoin="round" stroke-width=".325" d="m10.62 2.54-.97 1.21-.3.06-.07.3-1.24 1.01-.46-.46 1-1.24.3-.06.07-.3 1.21-.98.96-.5z"/><path fill="#64b9ed" stroke-width=".163" d="M7.64 5.05a.17.17 0 0 1 0-.24.17.17 0 0 1 .23 0 .17.17 0 0 1 0 .24.17.17 0 0 1-.23 0z"/><path fill="#d4af37" stroke-linejoin="round" stroke-width=".244" d="M1.67 11.03a.46.46 0 0 1 0-.66.46.46 0 0 1 .66 0 .46.46 0 0 1 0 .66.46.46 0 0 1-.66 0z"/><path fill="#3fc57d" stroke-linejoin="round" stroke-width=".325" d="m2.9 11 .45-.45-.8-.4-.4-.8-.45.45.4.8z"/><path fill="#a175ca" stroke-linejoin="round" stroke-width=".325" d="m6.79 4.7.45-.44.4.8.8.4L8 5.9l-.8-.4Z"/><path fill="#905dc1" stroke-linejoin="round" stroke-width=".357" d="m7.2 4.21.48-.48.43.86.86.43-.48.48-.85-.44z"/></g></svg>