<svg xmlns="http://www.w3.org/2000/svg" xml:space="preserve" width="48" height="48" viewBox="0 0 12.7 12.7"><defs><path id="a" d="M23.06 38.8h14.86v27.94H23.06z"/></defs><path fill="#fff" d="m3.16 1.06-.03.18-.03.16a1.03 1.03 0 0 1-.04.17.16.16 0 0 1-.05.07.2.2 0 0 1-.04.02.61.61 0 0 1-.12.03l-.18.01h-.62l-.97.02v.32a4.2 4.2 0 0 0 .64 2.27A4.5 4.5 0 0 0 3.7 6.05a3.89 3.89 0 0 0 .43.16 1.88 1.88 0 0 1 .36.19 3.88 3.88 0 0 1 .8.7.69.69 0 0 1 .07.14v.05l-.01.04a.3.3 0 0 0-.05.07.24.24 0 0 0-.02.16c0 .03.02.06.03.08a.32.32 0 0 0 .12.12.37.37 0 0 0 .2.05c.02 0 .05 0 .07.02a.12.12 0 0 1 .04.03l.03.05v.07l-.01.08a.78.78 0 0 1-.08.2 1.55 1.55 0 0 1-.2.31 1.94 1.94 0 0 1-.36.34.82.82 0 0 1-.29.12.8.8 0 0 0-.3.22.6.6 0 0 0-.1.14.4.4 0 0 0-.02.08c0 .03 0 .05-.02.07l-.01.03-.02.02a.11.11 0 0 1-.05.02h-.09a.68.68 0 0 0-.17.02.25.25 0 0 0-.08.05.24.24 0 0 0-.06.08l-.02.05a2.26 2.26 0 0 0-.07.62v1.21h5v-.89a19.1 19.1 0 0 0-.03-.8.82.82 0 0 0-.05-.2.2.2 0 0 0-.14-.12l-.05-.01a.8.8 0 0 0-.12-.01h-.09a.11.11 0 0 1-.05-.02l-.02-.02-.01-.03a.44.44 0 0 1-.02-.07.4.4 0 0 0-.06-.15.62.62 0 0 0-.11-.14.72.72 0 0 0-.23-.14.52.52 0 0 0-.08-.02.75.75 0 0 1-.3-.15 1.36 1.36 0 0 1-.29-.27 1.94 1.94 0 0 1-.25-.43.79.79 0 0 1-.04-.18v-.07l.03-.06.02-.02.03-.01a.2.2 0 0 1 .08-.01.5.5 0 0 0 .2-.05.35.35 0 0 0 .13-.12.25.25 0 0 0 .04-.15.26.26 0 0 0-.03-.08.33.33 0 0 0-.05-.08.06.06 0 0 1-.02-.04v-.05l.03-.06a1.57 1.57 0 0 1 .17-.24 2.83 2.83 0 0 1 .93-.7 4.2 4.2 0 0 0 1.74-.98 4.1 4.1 0 0 0 .97-1.38 4.95 4.95 0 0 0 .44-1.8l.03-.37-1-.01L9.6 1.7l-.04-.31-.05-.3-3.18-.02zm6.53 1.3h1.19l-.02.21a2 2 0 0 1-.1.54 3.42 3.42 0 0 1-.37.84 4.1 4.1 0 0 1-1.12 1.21l-.15.1a3.43 3.43 0 0 1-.28.11v-.04l.08-.12a2.48 2.48 0 0 0 .27-.47 4.74 4.74 0 0 0 .4-1.23 4.82 4.82 0 0 0 .07-.6zm-3.34.02.46.83.93.18-.65.7.12.94-.86-.4-.86.4.12-.94-.65-.7.93-.18zm-4.6 0h1.2l.03.49a6.85 6.85 0 0 0 .17 1.03 4.01 4.01 0 0 0 .3.75 8.9 8.9 0 0 0 .37.74l-.01.01h-.02a5.42 5.42 0 0 1-1.13-.85 3.4 3.4 0 0 1-.62-1.04 4.23 4.23 0 0 1-.25-.9z"/><path fill="#ffd15c" d="m3.16 1.06-.03.18-.03.16a1.03 1.03 0 0 1-.04.17.16.16 0 0 1-.05.07.2.2 0 0 1-.04.02.62.62 0 0 1-.12.03l-.18.01h-.62l-.97.02v.32a4.2 4.2 0 0 0 .64 2.27A4.5 4.5 0 0 0 3.7 6.05a3.89 3.89 0 0 0 .43.16 1.88 1.88 0 0 1 .36.19 3.87 3.87 0 0 1 .8.7.69.69 0 0 1 .07.14v.05l-.01.04a.29.29 0 0 0-.05.07.24.24 0 0 0-.02.16c0 .03.02.06.03.08a.32.32 0 0 0 .12.12.37.37 0 0 0 .2.05c.02 0 .05 0 .07.02a.12.12 0 0 1 .04.03l.03.05v.07l-.01.08a.78.78 0 0 1-.08.2 1.55 1.55 0 0 1-.2.31 1.94 1.94 0 0 1-.36.34.81.81 0 0 1-.3.12.79.79 0 0 0-.35.29.5.5 0 0 0-.06.15c0 .03 0 .05-.02.07l-.01.03-.02.02a.12.12 0 0 1-.05.02h-.09a.68.68 0 0 0-.17.02.26.26 0 0 0-.08.05.23.23 0 0 0-.06.08l-.02.05a2.25 2.25 0 0 0-.07.62v1.21h5v-.89a19.1 19.1 0 0 0-.03-.8.82.82 0 0 0-.05-.2.27.27 0 0 0-.06-.08.2.2 0 0 0-.08-.04l-.05-.01a.8.8 0 0 0-.12-.01h-.09a.12.12 0 0 1-.05-.02l-.02-.02-.01-.03a.44.44 0 0 1-.02-.07.4.4 0 0 0-.06-.15.62.62 0 0 0-.11-.14.73.73 0 0 0-.23-.14.52.52 0 0 0-.08-.02.75.75 0 0 1-.3-.15 1.36 1.36 0 0 1-.29-.27 1.94 1.94 0 0 1-.25-.43.79.79 0 0 1-.04-.18v-.07l.03-.06a.11.11 0 0 1 .05-.03.2.2 0 0 1 .08-.01.5.5 0 0 0 .2-.05.35.35 0 0 0 .08-.05.29.29 0 0 0 .08-.14.24.24 0 0 0-.02-.16.33.33 0 0 0-.05-.08.06.06 0 0 1-.02-.04v-.05l.03-.06a1.55 1.55 0 0 1 .16-.24 2.84 2.84 0 0 1 .94-.7 4.2 4.2 0 0 0 1.74-.98 4.11 4.11 0 0 0 .97-1.38 4.95 4.95 0 0 0 .44-1.8l.03-.37-1-.01L9.6 1.7l-.04-.31-.05-.3-3.18-.02zm6.53 1.3h1.19l-.02.21a1.97 1.97 0 0 1-.1.54 3.41 3.41 0 0 1-.37.84 4.1 4.1 0 0 1-1.12 1.21l-.15.1a3.43 3.43 0 0 1-.28.11v-.04l.08-.12a2.48 2.48 0 0 0 .27-.47 4.74 4.74 0 0 0 .4-1.23 4.82 4.82 0 0 0 .07-.6zm-3.34.02.46.83.93.18-.65.7.12.94-.86-.4-.86.4.12-.94-.65-.7.93-.18Zm-4.6 0h1.2l.03.49a6.87 6.87 0 0 0 .17 1.03 4.01 4.01 0 0 0 .3.75 8.9 8.9 0 0 0 .37.74l-.01.01h-.02a5.42 5.42 0 0 1-1.13-.85 3.4 3.4 0 0 1-.62-1.04 4.23 4.23 0 0 1-.25-.9z"/></svg>