<svg xmlns="http://www.w3.org/2000/svg" xml:space="preserve" width="24" height="24" viewBox="0 0 6.35 6.35"><path d="M-2.38.87c-.26 0-.32.01-.48.09-.24.1-.49.34-.6.58a1.4 1.4 0 0 0 0 1.07c.06.12.16.27.26.35l.15.15h-.13c-.65 0-1.1.26-1.35.76-.11.23-.12.25-.13.63-.01.44.02.55.15.63.08.04 1.5.05 2.69.05a1.27 1.27 0 0 1 1.2-1.8 1.59 1.59 0 0 0-.95-.27h-.14l.16-.15c.1-.08.2-.23.26-.35.17-.39.11-.74 0-1.07a1.41 1.41 0 0 0-.6-.58c-.16-.08-.23-.09-.49-.09Z" style="fill:#fff;fill-opacity:1;stroke-width:.0317637" transform="matrix(1.14 0 0 1.14 5.74 -.53)"/><path d="M-.63 5.53V3.88m-.82.83H.2" style="fill:none;fill-opacity:1;stroke:#fff;stroke-width:.455144;stroke-linecap:round;stroke-linejoin:miter;stroke-miterlimit:4;stroke-dasharray:none;stroke-opacity:1" transform="matrix(1.14 0 0 1.14 5.74 -.53)"/></svg>
