<svg xmlns="http://www.w3.org/2000/svg" xml:space="preserve" width="24" height="24" viewBox="0 0 6.35 6.35"><path d="M2.64 6.12a.65.65 0 0 1-.05-.21l-.06-.37-.03-.2-.17-.07a3.1 3.1 0 0 0-.18-.08l-.29.21-.32.24c-.1.04-.8-.63-.8-.77 0-.03.1-.19.21-.34l.22-.29-.07-.18a.63.63 0 0 0-.12-.2 3 3 0 0 0-.38-.08c-.24-.03-.36-.06-.38-.1a3.08 3.08 0 0 1 0-1.01c.03-.05.13-.08.4-.12a2 2 0 0 0 .4-.08l.08-.19.07-.16-.23-.3A3.03 3.03 0 0 1 .7 1.5c0-.1.63-.73.76-.76.06-.02.13.02.37.2l.3.22.17-.07.19-.07.05-.35c.07-.51.02-.47.62-.47.38 0 .52 0 .54.03l.09.41.06.37.18.08.17.08.3-.23c.16-.12.32-.22.36-.22.1 0 .74.66.74.76 0 .06-.07.18-.21.36l-.22.28.09.2.09.19.36.06c.2.03.39.07.41.09.06.04.06 1 0 1.05-.03.03-.2.07-.42.1l-.37.05-.08.18-.08.18.24.3c.18.25.22.32.2.38-.02.1-.6.69-.7.72-.11.02-.15 0-.47-.25l-.23-.18-.16.07-.18.08-.06.3-.07.4-.03.12h-.53c-.38 0-.53-.01-.55-.04zm.98-2.05c.21-.1.39-.28.48-.49.1-.2.1-.61 0-.82-.1-.19-.3-.4-.5-.49-.12-.06-.2-.07-.43-.07-.24 0-.3 0-.43.08-.2.1-.4.32-.49.52-.1.21-.09.55.02.78.1.22.3.42.5.52.12.05.2.07.4.07.23 0 .28-.01.45-.1z" style="fill:#fff;stroke-width:.0310442;fill-opacity:1"/></svg>
