<svg xmlns="http://www.w3.org/2000/svg" xml:space="preserve" width="24" height="24" viewBox="0 0 6.35 6.35"><path d="M1.96 6.05a.7.7 0 0 1-.38-.4.58.58 0 0 1 .56-.73c.23 0 .47.16.54.36.05.13.04.36-.02.48-.07.13-.13.19-.3.26a.5.5 0 0 1-.4.03Zm2.58 0a.73.73 0 0 1-.3-.3.74.74 0 0 1-.01-.48c.19-.37.66-.45.95-.16.14.14.17.25.15.48-.03.35-.46.6-.79.45ZM1.76 4.7c-.1-.05-.22-.21-.28-.4l-.2-1.01-.39-2.03-.02-.1H.63c-.13 0-.28-.01-.33-.03C.17 1.1.08.93.08.73.08.6.1.57.16.51.24.44.26.44.7.44c.52 0 .6.02.68.2.03.08.06.24.08.36l.05.3.01.07h2.24c1.58-.01 2.25 0 2.3.02.1.04.2.17.2.26 0 .07-.4 1.29-.54 1.6a.62.62 0 0 1-.17.27l-.1.07-1.75.01c-.96 0-1.74.02-1.74.03l.07.48.02.08h3.33l.07.07c.06.06.07.1.05.22-.02.27.13.25-1.88.26-1.46 0-1.78 0-1.86-.04Z" style="fill:#FFFFFF;fill-opacity:1;stroke-width:.0291155"/></svg>
