<svg xmlns="http://www.w3.org/2000/svg" xml:space="preserve" width="24" height="24" viewBox="0 0 6.35 6.35"><path d="m1.8 3.53-.37-1.19-1.17-.3 1.2-.36.3-1.17.36 1.2L3.3 2l-1.2.37Z" style="fill:#fff;stroke-width:.529167;stroke-linejoin:round" transform="matrix(1.045 0 0 1.236 -.17 -.61)"/><path d="m1.8 3.53-.37-1.19-1.17-.3 1.2-.36.3-1.17.36 1.2L3.3 2l-1.2.37Z" style="fill:#fff;stroke-width:.529167;stroke-linejoin:round" transform="matrix(1.009 0 0 1.193 2.92 2.1)"/><path d="m1.8 3.53-.37-1.19-1.17-.3 1.2-.36.3-1.17.36 1.2L3.3 2l-1.2.37Z" style="fill:#fff;stroke-width:.529167;stroke-linejoin:round" transform="matrix(.537 0 0 .636 4.28 .18)"/><path d="m1.8 3.53-.37-1.19-1.17-.3 1.2-.36.3-1.17.36 1.2L3.3 2l-1.2.37Z" style="fill:#fff;stroke-width:.529167;stroke-linejoin:round" transform="matrix(.37 0 0 .438 .17 3.55)"/><path d="m1.8 3.53-.37-1.19-1.17-.3 1.2-.36.3-1.17.36 1.2L3.3 2l-1.2.37Z" style="fill:#fff;stroke-width:.529167;stroke-linejoin:round" transform="matrix(.37 0 0 .438 2.42 2.32)"/><path d="m1.8 3.53-.37-1.19-1.17-.3 1.2-.36.3-1.17.36 1.2L3.3 2l-1.2.37Z" style="fill:#fff;stroke-width:.529167;stroke-linejoin:round" transform="matrix(.21 0 0 .248 1.23 4.94)"/></svg>
