<svg xmlns="http://www.w3.org/2000/svg" height="180" width="180"><g stroke-width="4.3"><path d="M25 145.2c-6.4-3.7-13.9-23.2-13.8-30.6 0-7.4 8-26.8 14.4-30.4 6.4-3.7 27-.4 33.5 3.3 6.3 3.8 19.2 20.3 19 27.7 0 7.4-13.1 23.7-19.6 27.3-6.4 3.6-27.1 6.5-33.5 2.7z" fill="#aea6a6" stroke="#333" stroke-width="4.958"/><path d="M40.5 83.9C34.1 80 26.6 60.6 26.7 53.2c0-7.4 8-26.8 14.4-30.4 6.4-3.7 27-.4 33.4 3.4 6.4 3.7 19.3 20.2 19.2 27.6 0 7.4-13.2 23.7-19.7 27.3-6.4 3.7-27.1 6.5-33.5 2.8z" fill="#aea6a6" stroke="#333" stroke-width="4.958"/><path d="M77.7 48.5c0 4.6-8.2 14.7-12.2 17-4 2.3-16.9 4-20.9 1.7S36 52.7 36 48.2c0-4.7 5-16.7 9-19 4-2.3 16.9-.3 20.8 2 4 2.4 12 12.7 12 17.3z" fill="#beb8b8"/><g transform="translate(-271 -63.8) scale(1.42704)" stroke-width="3.5"><path d="M285.4 156.3c-6 4.3-25.7 4.9-33 4.8-7.4 0-27.1-1-33-5.4-6-4.4-12.6-23-14.8-30-2.2-7-7.3-26-5-33s18-19 24-23.3c6-4.3 22.5-15 29.8-15 7.4 0 23.7 11.2 29.6 15.5 5.9 4.4 21.3 16.8 23.5 23.8 2.2 7-3.4 26-5.7 33-2.3 7-9.4 25.4-15.4 29.6z" fill="#aea6a6" stroke="#333"/><path d="M273.9 132.5c-3.8 3.2-16.5 3.6-21.2 3.6-4.8 0-17.4-.8-21.2-4-3.8-3.3-8-17-9.5-22.3-1.4-5.2-4.7-19.3-3.2-24.5 1.5-5.1 11.5-14 15.3-17.2 3.9-3.2 14.5-11.2 19.2-11.2 4.7 0 15.2 8.3 19 11.6 3.8 3.2 13.7 12.4 15 17.6 1.5 5.2-2 19.3-3.5 24.4-1.5 5.2-6 18.9-9.9 22z" fill="#a59b9b"/><path d="M272 134.2c-3.4 1.7-14.8 2-19 2-4.3 0-15.7-.5-19.1-2.2-3.4-1.8-7.3-9.2-8.6-12-1.2-2.7-4.2-10.3-2.9-13.1 1.4-2.8 10.4-7.6 13.9-9.3 3.4-1.7 13-6 17.2-6 4.3 0 13.7 4.5 17 6.2 3.5 1.8 12.4 6.7 13.7 9.5 1.2 2.8-2 10.3-3.3 13.1-1.4 2.8-5.4 10.1-8.9 11.8z" fill="#beb8b8"/><circle cx="239.5" cy="116.8" r="4.2" fill="#ccc"/></g></g></svg>