<svg xmlns="http://www.w3.org/2000/svg" height="180" width="180"><g stroke-width="4.1"><path d="M46.1 88.7c-6.7-4-14.6-24.5-14.6-32.3.1-7.8 8.4-28.3 15.2-32 6.8-4 28.6-.5 35.3 3.5 6.8 4 20.3 21.3 20.2 29.1 0 7.9-14 25-20.7 28.9-6.8 3.8-28.7 6.8-35.4 2.8z" fill="#aaa" stroke="#333" stroke-width="5"/><path d="M82.8 51.4c0 4.9-8.7 15.5-13 18-4.2 2.3-17.8 4.2-22 1.7-4.1-2.5-9-15.3-9-20.1 0-4.9 5.2-17.6 9.4-20 4.3-2.4 17.8-.2 22 2.2 4.2 2.5 12.6 13.3 12.6 18.2z" fill="#bbb"/></g><path d="M115.4 138.3c-6.1-3.6-13.4-22.4-13.3-29.6 0-7.1 7.7-25.8 14-29.3 6.1-3.5 26-.4 32.2 3.2 6.2 3.7 18.6 19.6 18.5 26.7 0 7.2-12.8 22.9-19 26.4-6.2 3.5-26.2 6.3-32.4 2.6z" fill="#aaa" stroke="#333" stroke-width="5.6"/><path d="M149.2 110.9c0 4.4-8 14.2-11.8 16.4-4 2.2-16.4 3.9-20.2 1.6-3.8-2.2-8.3-14-8.3-18.4 0-4.4 4.8-16 8.7-18.3 3.8-2.2 16.2-.2 20 2 3.9 2.3 11.6 12.2 11.6 16.7z" fill="#bbb"/><g transform="translate(-10.2 -10.2) scale(1.33632)" stroke-width="4.2"><path d="M107.5 123.6c-6 4.2-25.8 4.8-33.1 4.8-7.4-.1-27-1-33-5.5-5.9-4.3-12.6-23-14.8-30-2.2-7-7.3-26-5-33 2.4-7 18-19 24-23.3 6-4.2 22.5-15 29.8-15 7.4.1 23.7 11.2 29.6 15.6 5.9 4.4 21.3 16.8 23.5 23.8 2.2 7-3.3 26-5.7 32.9-2.3 7-9.3 25.4-15.3 29.7z" fill="#aaa" stroke="#333" stroke-width="4.1"/><path d="M99.2 99.7c-4.4 3.2-19 3.6-24.5 3.6-5.4 0-20-.8-24.4-4-4.4-3.3-9.4-17-11-22.3-1.6-5.2-5.5-19.3-3.7-24.5 1.7-5.1 13.3-14 17.7-17.3 4.5-3.1 16.7-11.1 22.2-11 5.4 0 17.5 8.2 21.9 11.5 4.4 3.2 15.8 12.4 17.4 17.6 1.7 5.2-2.4 19.3-4.2 24.4-1.7 5.2-7 18.9-11.4 22z" fill="#a0a0a0"/><path d="M94.7 112.2c-3.6 2.6-15.4 3-19.7 2.9-4.4 0-16.2-.6-19.7-3.3-3.5-2.6-7.5-13.6-8.8-17.8-1.3-4.2-4.4-15.6-3-19.7 1.4-4.2 10.7-11.4 14.3-14 3.5-2.5 13.4-9 17.8-8.9 4.4 0 14 6.7 17.6 9.3 3.5 2.6 12.7 10 14 14.2s-2 15.5-3.4 19.6c-1.4 4.2-5.6 15.2-9.1 17.7z" fill="#bbb"/><circle cx="88.2" cy="97.6" r="4.2" fill="#ccc"/></g></svg>