<svg xmlns="http://www.w3.org/2000/svg" height="250" width="250"><g stroke-width="3.7"><path transform="matrix(.59528 -.1595 .16168 .6034 68.6 252.5)" d="M191.2-33c-8.6 2.4-25 13.5-33.5 11.3-8.6-2.2-17.7-19.8-24-26-6.3-6.2-24.1-14.9-26.5-23.4-2.4-8.5 8.4-25.2 10.6-33.7 2.1-8.6.8-28.4 7-34.7 6.1-6.3 26-5.3 34.4-7.7 8.6-2.4 25-13.5 33.5-11.3 8.6 2.2 17.7 19.8 24 26 6.3 6.2 24.1 14.9 26.5 23.4 2.4 8.5-8.4 25.2-10.6 33.7-2.1 8.6-.8 28.4-7 34.7-6.1 6.3-26 5.4-34.4 7.7z" fill="#73823b" stroke="#333" stroke-width="8"/><path transform="matrix(.61628 0 0 .62469 19 126.5)" d="M191.2-33c-8.6 2.4-25 13.5-33.5 11.3-8.6-2.2-17.7-19.8-24-26-6.3-6.2-24.1-14.9-26.5-23.4-2.4-8.5 8.4-25.2 10.6-33.7 2.1-8.6.8-28.4 7-34.7 6.1-6.3 26-5.3 34.4-7.7 8.6-2.4 25-13.5 33.5-11.3 8.6 2.2 17.7 19.8 24 26 6.3 6.2 24.1 14.9 26.5 23.4 2.4 8.5-8.4 25.2-10.6 33.7-2.1 8.6-.8 28.4-7 34.7-6.1 6.3-26 5.4-34.4 7.7z" fill="#73823b" stroke="#333" stroke-width="8"/><path transform="matrix(1.36373 0 0 1.38233 -112.7 250)" d="M191.2-33c-6.1 1.7-15.1 13.8-21.4 13.3-6.3-.5-13.4-13.8-19-16.4-5.8-2.6-20.5.9-25-3.5s-1.4-19.2-4-24.9c-2.8-5.6-16.3-12.4-16.9-18.7-.6-6.2 11.3-15.5 12.9-21.6 1.5-6.1-4.4-20-.9-25.2 3.6-5.2 18.7-4.6 23.8-8.3 5-3.7 9.4-18.1 15.5-19.8 6-1.7 17.3 8.4 23.5 8.9 6.3.5 19-7.8 24.7-5.2 5.7 2.6 7.8 17.5 12.3 22 4.5 4.3 19.4 6.1 22.2 11.8 2.7 5.7-5.3 18.5-4.7 24.7.6 6.3 11 17.3 9.4 23.4-1.6 6-16 10.7-19.5 16-3.5 5-2.7 20.1-7.8 23.8-5.1 3.7-19-2-25.1-.3z" fill="#73823b" stroke="#333" stroke-width="3.6"/><path d="M140.4 178.8c-5.6 1.6-13.8 12.8-19.5 12.3-5.8-.4-12.2-12.7-17.5-15.2-5.2-2.4-18.6.8-22.7-3.2-4.1-4.1-1.3-17.8-3.8-23-2.5-5.3-14.7-11.6-15.3-17.4-.6-5.8 10.3-14.4 11.7-20 1.4-5.7-4-18.5-.7-23.3 3.2-4.8 17-4.4 21.6-7.7 4.7-3.4 8.7-16.8 14.2-18.4 5.6-1.5 15.8 7.8 21.5 8.2 5.8.5 17.3-7.1 22.5-4.7 5.3 2.4 7.2 16.2 11.3 20.3 4.1 4 17.8 5.7 20.3 11 2.5 5.2-4.8 17-4.3 22.8.6 5.8 10 16 8.6 21.7-1.4 5.6-14.5 10-17.8 14.7-3.2 4.8-2.5 18.8-7.1 22.2-4.7 3.4-17.5-1.8-23-.3z" fill="#7d8f41"/><path d="M137.7 169.8c-4.6 1.3-11.4 10.6-16.1 10.2-4.8-.4-10.1-10.6-14.4-12.5-4.4-2-15.5.6-18.8-2.8-3.4-3.3-1-14.6-3.1-19-2-4.3-12.3-9.5-12.7-14.3-.5-4.8 8.5-12 9.7-16.6 1.1-4.7-3.3-15.3-.7-19.2 2.7-4 14.1-3.6 18-6.4 3.8-2.8 7.1-13.9 11.7-15.2 4.6-1.3 13 6.4 17.8 6.8 4.7.4 14.3-6 18.6-4 4.3 2 5.9 13.5 9.3 16.8 3.4 3.4 14.7 4.8 16.7 9.1 2.1 4.4-4 14.2-3.5 19 .5 4.7 8.3 13.2 7.1 17.8-1.2 4.7-12 8.3-14.7 12.2-2.7 4-2 15.5-5.9 18.3-3.8 2.8-14.4-1.5-19-.2z" fill="#869e48"/><path transform="matrix(.67615 0 0 .68537 -10.6 191.9)" d="M191.2-33c-6.7 1.9-17.6 13.8-24.5 13-6.8-.8-14.6-15-20.6-18.4-6-3.4-22.2-2.7-26.5-8.1-4.2-5.5.3-21-1.5-27.6-1.9-6.7-13.8-17.6-13-24.5.8-6.8 15-14.6 18.4-20.6 3.4-6 2.7-22.2 8.1-26.4 5.5-4.3 21 .2 27.6-1.6 6.7-1.9 17.6-13.8 24.5-13 6.8.8 14.6 15 20.6 18.4 6 3.4 22.2 2.7 26.5 8.1 4.2 5.5-.3 21 1.5 27.6s13.8 17.6 13 24.5c-.8 6.8-15 14.6-18.4 20.6-3.4 6-2.7 22.2-8.1 26.5-5.5 4.2-21-.3-27.6 1.5z" fill="#7d8f41" stroke="#333" stroke-width="7.3"/><path d="M115.1 156.3c-3 .9-8 6.4-11 6-3.2-.4-6.7-6.9-9.4-8.5-2.7-1.5-10-1.2-12-3.7s.1-9.6-.7-12.7c-.8-3-6.2-8-5.9-11.2.4-3.1 6.8-6.7 8.4-9.5 1.5-2.7 1.2-10.1 3.6-12.1 2.5-2 9.5.1 12.6-.7 3-.9 8-6.4 11-6 3.1.4 6.6 7 9.4 8.5 2.7 1.5 10 1.2 12 3.7 1.9 2.5-.2 9.6.7 12.7.8 3 6.2 8 5.8 11.2-.3 3.2-6.8 6.7-8.3 9.5-1.5 2.7-1.2 10.2-3.7 12.1-2.4 2-9.5-.1-12.5.7z" fill="#869e48"/><path d="M113.9 151.8c-2.5.7-6.6 5.2-9.2 5-2.6-.4-5.5-5.8-7.7-7-2.3-1.4-8.3-1-10-3.1-1.5-2.1.2-8-.5-10.5-.7-2.6-5.2-6.7-4.9-9.3.3-2.6 5.7-5.5 7-7.8 1.2-2.3 1-8.5 3-10 2-1.7 7.8 0 10.3-.7 2.5-.7 6.6-5.2 9.2-4.9 2.5.3 5.4 5.7 7.7 7 2.2 1.3 8.3 1 9.9 3 1.6 2.1-.1 8 .6 10.6.7 2.5 5.1 6.6 4.8 9.2-.3 2.6-5.6 5.6-6.9 7.9-1.2 2.3-1 8.4-3 10-2 1.6-7.8-.1-10.3.6z" fill="#8da94e"/></g></svg>