<svg xmlns="http://www.w3.org/2000/svg" xml:space="preserve" width="125" height="125" viewBox="0 0 33.073 33.073"><g stroke="#333" transform="translate(1071.74 119.278)"><rect width="88.97" height="88.97" x="3.51" y="3.51" fill="#3fc57d" stroke-width="7.025" rx="6.9" ry="6.9" transform="matrix(.265 0 0 .265 -1067.92 -115.46)"/><path fill="#646055" stroke-width="1.323" d="m-1051.08-98.62-3.08 6.87h-2.12l-3.08-6.87-6.86-3.08v-2.11l6.86-3.09 3.08-6.86h2.12l3.08 6.86 6.86 3.09v2.11z"/><circle cx="-1055.22" cy="-102.76" r="7.28" fill="#767164" stroke-width="1.323"/><circle cx="-1055.22" cy="-102.76" r="3.97" fill="#646055" stroke-width="1.323"/></g><g stroke="#333" transform="translate(-376.094 236.101) scale(.9998)"><path fill="#d6db5e" stroke-linecap="round" stroke-linejoin="round" stroke-width="1.058" d="M386.62-217.2h12.18v5.04h-12.18z" paint-order="markers fill stroke"/><path fill="none" stroke-width="1.058" d="m386.73-212.32 2.33-4.71m.65 4.7 2.33-4.7m.64 4.7 2.33-4.7m.64 4.7 2.33-4.7"/><path fill="#3fc57d" stroke-linejoin="round" stroke-width="1.058" d="M389.49-209.61h6.44l.53 3.42h-7.5z"/><path fill="#767164" stroke-linecap="round" stroke-linejoin="round" stroke-width=".794" d="M385.44-213.5h14.53l-.74 5.65h-13.04z" paint-order="markers fill stroke"/><path fill="#3fc57d" stroke-linecap="round" stroke-linejoin="round" stroke-width=".794" d="M388.62-212.08c-.6 0-1.08.48-1.08 1.07 0 .59.48 1.6.8 1.6h8.75c.3-.01.78-1.02.78-1.6 0-.59-.48-1.07-1.08-1.07a1.07 1.07 0 0 0-1.06 1.24h-6.05a1.07 1.07 0 0 0-1.06-1.24z" paint-order="markers fill stroke"/><path fill="#767164" stroke-linecap="round" stroke-linejoin="round" stroke-width=".794" d="M387.14-230.82v-2.34h2.98v2.33z" paint-order="markers fill stroke"/><path fill="#3fc57d" stroke-linecap="round" stroke-linejoin="round" stroke-width="1.058" d="M386.59-232.06h4.04v10.66h-4.04z" paint-order="markers fill stroke"/><path fill="#767164" stroke-linecap="round" stroke-linejoin="round" stroke-width="1.058" d="M386.01-230.02h5.24v2.2h-5.24z" paint-order="markers fill stroke"/><path fill="#767164" stroke-linecap="round" stroke-linejoin="round" stroke-width=".794" d="M395.26-230.82v-2.34h3v2.33z" paint-order="markers fill stroke"/><path fill="#3fc57d" stroke-linecap="round" stroke-linejoin="round" stroke-width="1.058" d="M394.72-232.06h4.14v10.66h-4.14z" paint-order="markers fill stroke"/><path fill="#767164" stroke-linecap="round" stroke-linejoin="round" stroke-width="1.058" d="M394.17-229.79h5.24v2.2h-5.24z" paint-order="markers fill stroke"/><rect width="16.18" height="2.57" x="384.62" y="-221.52" fill="#3fc57d" stroke-linecap="round" stroke-linejoin="round" stroke-width=".794" paint-order="markers fill stroke" rx=".98" ry=".98"/><path fill="#767164" stroke-linecap="round" stroke-linejoin="round" stroke-width="1.058" d="M385.56-223.55h3.37s2.4.13 3.76-2.2c1.21 2.33 3.75 2.2 3.75 2.2h3.42l-.75 6.3h-12.8z" paint-order="markers fill stroke"/><path fill="none" stroke-width="1.058" d="M386.02-220.46h13.38"/><rect width="6.78" height="1.92" x="389.32" y="-221.23" fill="#d9464b" stroke-linecap="round" stroke-linejoin="round" stroke-width=".794" paint-order="markers fill stroke" rx=".97" ry=".96"/></g></svg>