<svg xmlns="http://www.w3.org/2000/svg" xml:space="preserve" width="125" height="125" viewBox="0 0 33.073 33.073"><g stroke="#333" transform="translate(1071.74 119.278)"><rect width="88.97" height="88.97" x="3.51" y="3.51" fill="#a96b52" stroke-width="7.025" rx="6.9" ry="6.9" transform="matrix(.265 0 0 .265 -1067.92 -115.46)"/><path fill="#ababab" stroke-width="1.323" d="m-1051.08-98.62-3.08 6.87h-2.12l-3.08-6.87-6.86-3.08v-2.11l6.86-3.09 3.08-6.86h2.12l3.08 6.86 6.86 3.09v2.11z"/><circle cx="-1055.22" cy="-102.76" r="7.28" fill="#ccc" stroke-width="1.323"/><circle cx="-1055.22" cy="-102.76" r="3.97" fill="#ababab" stroke-width="1.323"/></g><g stroke="#333"><path fill="#d6db5e" stroke-linecap="round" stroke-linejoin="round" stroke-width="1.058" d="M10.458 18.95h12.177v5.049H10.458Z" paint-order="markers fill stroke"/><path fill="none" stroke-width="1.058" d="m10.578 23.829 2.33-4.699m.64 4.699 2.329-4.699m.64 4.699 2.329-4.699m.65 4.699 2.33-4.699"/><path fill="#a96b52" stroke-linejoin="round" stroke-width="1.058" d="M13.337 26.538h6.439l.53 3.42h-7.499z"/><path fill="#bbb" stroke-linecap="round" stroke-linejoin="round" stroke-width=".794" d="M9.288 22.65h14.527l-.74 5.648H10.038Z" paint-order="markers fill stroke"/><path fill="#a96b52" stroke-linecap="round" stroke-linejoin="round" stroke-width=".794" d="M12.467 24.069c-.6 0-1.08.48-1.08 1.07 0 .59.48 1.6.8 1.6h8.749c.3-.01.78-1.02.78-1.6 0-.59-.48-1.07-1.08-1.07a1.07 1.07 0 0 0-1.06 1.24h-6.049a1.07 1.07 0 0 0-1.06-1.24Z" paint-order="markers fill stroke"/><path fill="#bbb" stroke-linecap="round" stroke-linejoin="round" stroke-width=".794" d="M10.978 5.323v-2.34h2.979v2.33z" paint-order="markers fill stroke"/><path fill="#a96b52" stroke-linecap="round" stroke-linejoin="round" stroke-width="1.058" d="M10.428 4.093h4.039v10.658h-4.04Z" paint-order="markers fill stroke"/><path fill="#bbb" stroke-linecap="round" stroke-linejoin="round" stroke-width="1.058" d="M9.848 6.133h5.239v2.2h-5.24Z" paint-order="markers fill stroke"/><path fill="#bbb" stroke-linecap="round" stroke-linejoin="round" stroke-width=".794" d="M19.096 5.323v-2.34h3v2.33z" paint-order="markers fill stroke"/><path fill="#a96b52" stroke-linecap="round" stroke-linejoin="round" stroke-width="1.058" d="M18.556 4.093h4.14v10.658h-4.14z" paint-order="markers fill stroke"/><path fill="#bbb" stroke-linecap="round" stroke-linejoin="round" stroke-width="1.058" d="M18.006 6.363h5.24v2.2h-5.24z" paint-order="markers fill stroke"/><g fill="#a96b52" transform="translate(149.8 51.743) scale(.9998)"><rect width="16.18" height="2.57" x="-141.38" y="-37.11" stroke-linecap="round" stroke-linejoin="round" stroke-width=".794" paint-order="markers fill stroke" rx=".98" ry=".98"/><path fill="#bbb" stroke-linecap="round" stroke-linejoin="round" stroke-width="1.058" d="M-140.43-39.14h3.36s2.4.13 3.76-2.21c1.22 2.34 3.76 2.2 3.76 2.2h3.41l-.74 6.3h-12.8z" paint-order="markers fill stroke"/><path stroke-width="1.058" d="M-139.97-36.05h13.37"/><rect width="6.78" height="1.92" x="-136.68" y="-36.83" fill="#d9464b" stroke-linecap="round" stroke-linejoin="round" stroke-width=".794" paint-order="markers fill stroke" rx=".97" ry=".96"/></g></g></svg>