<svg xmlns="http://www.w3.org/2000/svg" xml:space="preserve" width="125" height="125"><g stroke="#333" transform="translate(95.335 57.815)"><rect width="88.97" height="88.97" x="-77.32" y="-39.8" fill="#ac744f" stroke-width="7.025" rx="6.9" ry="6.9"/><path fill="#bbb" stroke-width="4.535" d="M-5.57 31.96c-8.1 8.1-46.43 8.1-54.53 0-8.1-8.1-8.1-46.44 0-54.54 8.1-8.1 46.44-8.1 54.53 0 8.1 8.1 8.1 46.44 0 54.54z"/></g><g transform="translate(30 -2.5)"><path fill="#9f9f9f" stroke="#333" stroke-linejoin="round" stroke-width="5" d="M3.2 69.18V46.56h12v22.62zm46.59 0V46.56H61.8v22.62z"/><path fill="#ac744f" stroke="#333" stroke-width="5" d="m9.88 94.06 6-79.25c.33-4.42 5.35-8 12-8h9.25c6.64 0 11.66 3.58 12 8l6 79.25c.33 4.42-5.36 8-12 8H21.86c-6.64 0-12.33-3.58-12-8z"/><path fill="#905b46" d="M38.27 20.24s2.864 22.372 2.41 33.598c-.46 11.316-3.152 33.599-3.152 33.599l5.651 1.276.023.32h9L47.27 20.238Z"/><path fill="#b3886c" stroke="#333" stroke-linejoin="round" stroke-width="5" d="M28.13 124.03v-17.5h8.75v17.5z"/><path fill="#ac744f" stroke="#333" stroke-width="5" d="M54.77 100.7a22.27 13.94 0 0 1-11.13 12.07 22.27 13.94 0 0 1-22.28 0 22.27 13.94 0 0 1-11.13-12.07H32.5Z"/><rect width="17" height="50.2" x="-101.51" y="7.37" fill="#bbb" stroke="#333" stroke-width="5" rx="8" ry="3" transform="rotate(-90)"/><path fill="#bbb" stroke="#333" stroke-linejoin="round" stroke-width="4" d="M28.79 70.9V35.53h7.42v35.35z"/><rect width="38.3" height="14.85" x="-51.68" y="-20.82" fill="#9f9f9f" stroke="#333" stroke-width="5" rx="8" ry="3.5" transform="scale(-1)"/><rect width="24.17" height="9.85" x="15.69" y="8.47" fill="#bbb" rx="4.02" ry="1.86"/></g></svg>