<svg xmlns="http://www.w3.org/2000/svg" xml:space="preserve" width="120.69" height="120.69" viewBox="0 0 31.93 31.93"><g transform="translate(-17.6 -3.27)"><rect width="23.54" height="23.54" x="21.79" y="7.47" fill="#87694d" stroke="#333" stroke-width="1.86" rx="1.83" ry="1.83"/><g stroke="#333" stroke-linecap="round" stroke-linejoin="round" stroke-width="1.9" transform="matrix(.448 0 0 .448 -21.27 -6.9)"><rect width="4.06" height="8.21" x="-146.42" y="-63.25" fill="#767164" rx="2.06" ry="2.06" transform="scale(-1)"/><path fill="#c5bb5f" d="m139.19 52.75 2.3-1.06 8.65 1.06c.47.05.86.38.86.85v1.63a.85.85 0 0 1-.86.85h-10.95a.85.85 0 0 1-.85-.85V53.6c0-.47.46-.59.85-.85zm-.14 7.74h10.96a.85.85 0 0 1 .85.85v1.63c0 .48-.39.77-.85.86l-8.66 1.06-2.3-1.06c-.43-.2-.86-.38-.86-.86v-1.63c0-.47.38-.85.86-.85z"/><rect width="4.06" height="8.21" x="98.16" y="53.34" fill="#767164" rx="2.06" ry="2.06"/><path fill="#c5bb5f" d="m105.4 63.84-2.3 1.06-8.66-1.06c-.47-.05-.86-.38-.86-.85v-1.63a.85.85 0 0 1 .86-.85h10.95a.85.85 0 0 1 .85.85V63c0 .47-.46.6-.85.85zm.13-7.74H94.57a.85.85 0 0 1-.85-.85v-1.63c0-.48.4-.77.85-.86l8.66-1.06 2.3 1.06c.43.2.86.38.86.86v1.63c0 .47-.38.85-.86.85z"/><rect width="4.06" height="8.21" x="34.18" y="-127.24" fill="#767164" rx="2.06" ry="2.06" transform="rotate(90)"/><path fill="#c5bb5f" d="m116.74 41.4-1.06-2.3 1.06-8.64c.05-.47.38-.86.85-.86h1.63a.85.85 0 0 1 .85.86V41.4a.85.85 0 0 1-.85.85h-1.63c-.47 0-.59-.46-.85-.85zm7.74.15V30.59a.85.85 0 0 1 .85-.85h1.63c.48 0 .77.39.86.85l1.06 8.66-1.06 2.3c-.2.43-.38.86-.86.86h-1.63a.85.85 0 0 1-.85-.86z"/><rect width="4.06" height="8.21" x="-82.43" y="117.34" fill="#767164" rx="2.06" ry="2.06" transform="rotate(-90)"/><path fill="#c5bb5f" d="m127.84 75.2 1.06 2.3-1.06 8.65c-.05.47-.38.86-.85.86h-1.63a.85.85 0 0 1-.85-.86V75.2a.85.85 0 0 1 .85-.85H127c.47 0 .6.46.85.85zm-7.74-.14v10.96a.85.85 0 0 1-.85.85h-1.63c-.48 0-.77-.39-.86-.85l-1.06-8.66 1.06-2.3c.2-.43.38-.86.86-.86h1.63c.47 0 .85.38.85.86z"/></g><rect width="17.39" height="17.39" x="24.86" y="10.54" fill="#735942" stroke="#333" stroke-width="1.59" rx=".37" ry=".37"/><g fill="#767164" stroke="#333" stroke-linecap="round" stroke-linejoin="round" stroke-width="1.46"><path fill="#807b6c" d="m38.18 14.77-1.94-1.95-5.32-.01-3.78 3.75-.01 5.32 1.96 1.98"/><path d="m29.09 23.86 1.79 1.8 5.32.02 3.78-3.76.02-5.32-1.82-1.83"/></g><path fill="#767164" stroke="#333" stroke-linecap="round" stroke-linejoin="round" stroke-width="1.59" d="M39.37 31.82v-3.33h1.58c.95 0 1.56-.78 1.71-1.72V25.2H46V29a2.82 2.82 0 0 1-2.82 2.83zm-18.25-6.63h3.33v1.58c0 .95.78 1.56 1.71 1.71h1.58v3.34h-3.8a2.82 2.82 0 0 1-2.82-2.83zm6.63-18.52V10h-1.58c-.95 0-1.56.78-1.72 1.72v1.58h-3.33V9.5a2.82 2.82 0 0 1 2.82-2.83zM46 13.3h-3.33v-1.58c0-.95-.78-1.56-1.72-1.71h-1.57V6.67h3.8A2.82 2.82 0 0 1 46 9.5z"/><path fill="#704682" stroke="#333" stroke-linecap="round" stroke-linejoin="round" stroke-width="1.32" d="m37.25 19.24-3.7 3.7-3.7-3.7 3.7-3.7z"/><path fill="#774a89" d="M30.82 19.24h2.74v-2.73z"/><path fill="#694179" d="M36.3 19.24h-2.74v2.74z"/></g></svg>